<svg width="172" height="172" viewBox="0 0 172 172" fill="none" xmlns="http://www.w3.org/2000/svg">
<g id="Group 36943">
<path id="path3758" d="M151.585 53.0433C151.625 53.0267 160.651 70.9005 159.049 89.9024C158.178 121.816 129.973 158.019 87.9398 159.195L82.079 159.073C38.7639 156.921 12.146 120.168 12.268 86.957C12.375 80.783 12.3501 73.8812 14.9543 65.345L17.61 66.1386C28.7108 70.3343 40.6869 102.769 79.622 104.615C81.3123 104.695 84.5589 104.77 84.5516 104.783C82.0313 107.298 67.7017 113.208 61.1998 114.765C61.0669 114.723 62.9001 114.358 61.1998 114.765C76.8592 124.472 92.5186 105.791 112.848 103.043L119.075 102.677C117.885 98.9226 112.525 99.2395 112.024 99.2889C97.9584 100.674 101.472 99.0603 101.035 99.1973C122.647 92.4208 135.101 75.113 150.655 54.0653L151.585 53.0433Z" fill="#007EC6"/>
<path id="path3766" fill-rule="evenodd" clip-rule="evenodd" d="M120.174 20.7172C118.664 19.914 105.98 12.2923 86.5054 11.987C44.2876 12.139 25.6992 43.1226 25.6992 43.1226C35.0399 47.7014 44.7324 61.4905 44.8689 61.682C55.3222 76.3486 69.8899 99.0814 88.7648 99.5161C94.808 99.6552 98.8277 96.0401 103.416 91.5966C120.172 75.3684 122.518 45.3659 143.984 41.1386C143.984 41.1386 136.017 29.1422 120.174 20.7172ZM73.3988 40.5623H78.4162C80.4403 40.5623 82.0698 42.1918 82.0698 44.2159V56.2922C82.0698 58.3163 80.4403 59.9459 78.4162 59.9459H73.3988C71.3747 59.9459 69.7452 58.3163 69.7452 56.2922V44.2159C69.7452 42.1918 71.3747 40.5623 73.3988 40.5623ZM74.7356 43.8883H77.0794C77.5461 43.8883 77.9218 44.264 77.9218 44.7307V55.7775C77.9218 56.2441 77.5461 56.6198 77.0794 56.6198H74.7356C74.2689 56.6198 73.8932 56.2441 73.8932 55.7775V44.7307C73.8932 44.264 74.2689 43.8883 74.7356 43.8883ZM89.2688 40.5664C87.2447 40.5664 85.6172 42.1939 85.6172 44.218V59.946H89.761V52.1621H93.7903V59.946H97.9341V44.218C97.9341 42.1939 96.3067 40.5664 94.2826 40.5664H89.2688ZM90.6081 43.886H92.9433C93.4099 43.886 93.7903 44.2664 93.7903 44.7331V48.8425H89.761V44.7331C89.761 44.2664 90.1414 43.886 90.6081 43.886ZM105.133 40.5664C103.109 40.5664 101.482 42.1939 101.482 44.218V59.946H105.625V52.1621H109.655V59.946H113.798V44.218C113.798 42.1939 112.171 40.5664 110.147 40.5664H105.133ZM106.472 43.886H108.808C109.274 43.886 109.655 44.2664 109.655 44.7331V48.8425H105.625V44.7331C105.625 44.2664 106.006 43.886 106.472 43.886ZM53.8694 40.5664V59.946H58.0246V44.7331C58.0246 44.2664 58.3936 43.886 58.8602 43.886H61.2068C61.6735 43.886 62.0539 44.2664 62.0539 44.7331V59.946H66.1977V44.218C66.1977 42.1939 64.5702 40.5664 62.5461 40.5664H53.8694Z" fill="#263F78"/>
<path id="text4662" d="M12.383 111.723L4.98979 114.033L4.64635 112.934L8.93788 107.802C9.03095 107.689 9.12047 107.587 9.20642 107.498C9.29238 107.409 9.3753 107.333 9.45519 107.272L3.46234 109.144L3.1628 108.185L10.556 105.875L10.8963 106.965L6.553 112.195C6.48608 112.274 6.41451 112.351 6.33827 112.424C6.26205 112.498 6.18001 112.57 6.09217 112.642L12.085 110.769L12.383 111.723ZM6.72724 103.591L6.22838 101.23L3.13201 103.109L6.72724 103.591ZM10.3389 105.118L2.16599 103.904L1.9258 102.767L8.90754 98.3418L9.14339 99.4582L7.04918 100.739L7.67955 103.723L10.1139 104.053L10.3389 105.118ZM8.6147 95.8513L1.86284 96.6953L2.16612 99.1216L1.23213 99.2383L0.494474 93.337L1.42846 93.2202L1.73174 95.6465L8.48361 94.8026L8.6147 95.8513ZM8.15869 91.4214L0.430508 91.9416L0.359875 90.8923L8.08805 90.3721L8.15869 91.4214ZM4.07223 87.9066C5.06432 87.9098 5.84067 87.6835 6.40128 87.2278C6.96189 86.7721 7.2435 86.1394 7.24611 85.3296C7.2487 84.5233 6.97116 83.8923 6.41347 83.4365C5.85579 82.9808 5.08091 82.7513 4.08882 82.7481C3.09323 82.7449 2.31601 82.9694 1.75716 83.4215C1.19831 83.8737 0.917591 84.503 0.91499 85.3092C0.912393 86.119 1.18905 86.7536 1.74496 87.2129C2.30089 87.6721 3.07664 87.9034 4.07223 87.9066ZM4.06873 88.995C2.78919 88.9909 1.79026 88.6626 1.07195 88.01C0.353643 87.3574 -0.00366205 86.4561 2.8294e-05 85.3063C0.00372323 84.16 0.365931 83.2646 1.08665 82.6201C1.80739 81.9756 2.80928 81.6555 4.09232 81.6596C5.37187 81.6637 6.3708 81.9903 7.08912 82.6394C7.80744 83.2885 8.16476 84.1862 8.16107 85.3326C8.15737 86.4824 7.79428 87.3813 7.07178 88.0293C6.34929 88.6772 5.34827 88.9992 4.06873 88.995ZM8.05879 80.3504L0.356309 79.5337L0.477741 78.3885L6.45438 75.3842C6.58489 75.3169 6.70733 75.2594 6.82168 75.2116C6.93603 75.1638 7.04212 75.1275 7.13994 75.1026L0.896375 74.4405L1.00228 73.4418L8.70477 74.2585L8.58444 75.3932L2.52105 78.4677C2.42799 78.5142 2.3319 78.556 2.23278 78.5931C2.13367 78.6302 2.02961 78.6641 1.92058 78.6948L8.16415 79.3569L8.05879 80.3504ZM6.09606 70.6425L6.57508 68.2769L2.98715 68.7736L6.09606 70.6425ZM8.80562 73.4767L1.78489 69.1203L2.01553 67.9813L10.1801 66.6891L9.95361 67.8075L7.52312 68.1523L6.91781 71.1415L9.02165 72.4099L8.80562 73.4767ZM10.4259 65.929L2.9851 63.7773L3.28016 62.7569L9.78141 64.6369L10.8536 60.9291L11.7931 61.2008L10.4259 65.929ZM9.80894 55.3907C10.7185 55.7869 11.5209 55.8869 12.2162 55.6908C12.9116 55.4947 13.4209 55.0255 13.7443 54.283C14.0663 53.5438 14.0617 52.8545 13.7304 52.215C13.3991 51.5755 12.7786 51.0576 11.8691 50.6614C10.9564 50.2638 10.1538 50.1618 9.4615 50.3554C8.76919 50.549 8.26203 51.0154 7.94001 51.7546C7.61661 52.497 7.61905 53.1892 7.94736 53.8312C8.27567 54.4732 8.8962 54.9931 9.80894 55.3907ZM9.37423 56.3886C8.20116 55.8776 7.41424 55.1801 7.01348 54.2962C6.61274 53.4123 6.64197 52.4433 7.10118 51.3892C7.559 50.3382 8.24649 49.6598 9.16364 49.3538C10.0808 49.0478 11.1275 49.1511 12.3038 49.6635C13.4769 50.1745 14.2645 50.8703 14.6667 51.751C15.0688 52.6317 15.041 53.5975 14.5832 54.6485C14.124 55.7026 13.4343 56.3839 12.5141 56.6924C11.5939 57.0009 10.5473 56.8996 9.37423 56.3886ZM16.6324 43.8964L17.134 43.0081C17.9327 43.5115 18.4286 44.1609 18.6215 44.9563C18.8145 45.7517 18.6783 46.5615 18.2129 47.3856C17.6768 48.335 16.9331 48.8963 15.9817 49.0697C15.0304 49.243 13.9823 49.0065 12.8376 48.3601C11.7814 47.7637 11.1022 47.0077 10.7999 46.0922C10.4976 45.1767 10.617 44.2397 11.1583 43.2812C11.5892 42.5181 12.139 42.0043 12.8077 41.7397C13.4765 41.4752 14.1727 41.497 14.8965 41.8051L14.3898 42.7025C13.8958 42.5363 13.4385 42.5458 13.0179 42.731C12.5973 42.9163 12.2422 43.2653 11.9526 43.7781C11.5665 44.4619 11.5066 45.1276 11.773 45.7752C12.0394 46.4228 12.6091 46.9931 13.4821 47.4861C14.3063 47.9515 15.0779 48.1286 15.797 48.0173C16.5161 47.906 17.0583 47.5268 17.4237 46.8796C17.7357 46.3271 17.8196 45.7776 17.6753 45.2311C17.5309 44.6846 17.1833 44.2397 16.6324 43.8964ZM20.3334 43.3887L13.9735 38.9675L17.1251 34.434L17.9152 34.9833L15.358 38.6619L17.2577 39.9826L19.6199 36.5846L20.3625 37.1008L18.0004 40.4988L20.1333 41.9816L22.7416 38.2295L23.536 38.7818L20.3334 43.3887ZM22.7322 34.6628L24.2784 32.8096L20.8859 31.5405L22.7322 34.6628ZM23.7682 38.4445L19.6634 31.2738L20.4078 30.3815L28.2048 33.1269L27.4738 34.0031L25.1717 33.1507L23.2178 35.4926L24.4655 37.6087L23.7682 38.4445ZM28.7512 32.5589L23.2919 27.0642L24.1088 26.2526L30.6409 27.6941C30.7846 27.7243 30.9159 27.7569 31.0348 27.792C31.1536 27.8271 31.2589 27.8659 31.3504 27.9083L26.9252 23.4544L27.6377 22.7465L33.097 28.2411L32.2875 29.0454L25.6439 27.6035C25.5423 27.5809 25.4414 27.5527 25.3411 27.5189C25.2408 27.4851 25.1387 27.4458 25.0347 27.4008L29.46 31.8547L28.7512 32.5589ZM34.3769 27.1683L29.2992 21.3191L30.0934 20.6297L35.1711 26.4788L34.3769 27.1683ZM39.024 19.7774L39.8373 19.1616C40.3703 19.9409 40.5672 20.7338 40.4283 21.5404C40.2893 22.347 39.8426 23.036 39.088 23.6074C38.2188 24.2656 37.3132 24.4852 36.3713 24.2662C35.4294 24.0472 34.5616 23.4137 33.768 22.3657C33.0358 21.3987 32.7129 20.4351 32.7992 19.4748C32.8856 18.5146 33.3676 17.7022 34.2451 17.0377C34.9438 16.5086 35.6525 16.2556 36.3713 16.2786C37.0901 16.3015 37.7203 16.5982 38.2621 17.1685L37.4405 17.7907C37.0533 17.4419 36.6299 17.2689 36.1703 17.2718C35.7107 17.2746 35.2461 17.4538 34.7766 17.8093C34.1506 18.2833 33.8311 18.8704 33.8182 19.5706C33.8053 20.2707 34.1015 21.0204 34.7068 21.8197C35.2782 22.5743 35.9159 23.0434 36.62 23.227C37.3241 23.4106 37.9724 23.2781 38.5648 22.8295C39.0707 22.4464 39.366 21.9755 39.4507 21.4166C39.5354 20.8578 39.3932 20.3114 39.024 19.7774ZM44.7096 15.7148L46.8076 14.5215L44.0756 12.1432L44.7096 15.7148ZM44.3535 19.6196L43.0243 11.4648L44.0344 10.8902L50.3732 16.1958L49.3814 16.7599L47.5244 15.1543L44.8733 16.6622L45.2996 19.0815L44.3535 19.6196ZM51.0843 15.8555L47.9053 8.79226L48.9555 8.31963L54.5638 11.9656C54.6876 12.0444 54.799 12.1212 54.898 12.1958C54.9969 12.2704 55.0818 12.3437 55.1526 12.4157L52.5758 6.69023L53.4917 6.27803L56.6706 13.3413L55.6301 13.8096L49.9175 10.124C49.8304 10.0671 49.7458 10.0052 49.6638 9.93835C49.5818 9.87147 49.5001 9.79871 49.4185 9.72006L51.9953 15.4455L51.0843 15.8555ZM58.7434 5.33795L57.0283 5.91286L58.9051 11.5119L60.6202 10.937C61.3548 10.6907 61.8299 10.2662 62.0456 9.66331C62.2613 9.06044 62.2126 8.29201 61.8996 7.358C61.5998 6.46389 61.1792 5.84324 60.6376 5.49605C60.0961 5.14888 59.4646 5.09618 58.7434 5.33795ZM58.2088 12.7436L55.747 5.39953L58.544 4.46195C59.5678 4.1188 60.4539 4.16192 61.2023 4.59134C61.9508 5.02077 62.5183 5.81217 62.9049 6.96553C63.3049 8.1588 63.3344 9.18141 62.9932 10.0334C62.6521 10.8853 61.9763 11.4807 60.9659 11.8194L58.2088 12.7436ZM69.0577 6.28011L71.4272 5.82044L69.5993 2.69335L69.0577 6.28011ZM67.4715 9.86599L68.8201 1.71429L69.961 1.49297L74.2701 8.54707L73.1499 8.76438L71.904 6.64925L68.9099 7.23009L68.5401 9.65868L67.4715 9.86599ZM76.7652 8.29528L76.0324 1.53044L73.6015 1.79376L73.5001 0.857971L79.4128 0.217521L79.5142 1.15331L77.0832 1.41662L77.816 8.18146L76.7652 8.29528ZM82.0681 1.2211L82.1463 7.81996L81.1788 7.83144L81.087 0.0863141L82.5908 0.0684775L84.5803 5.97155C84.6383 6.13914 84.6811 6.26923 84.7085 6.36181C84.7359 6.45439 84.757 6.53565 84.7718 6.60559C84.7983 6.47556 84.825 6.35955 84.8519 6.25756C84.8787 6.15557 84.9073 6.05882 84.9378 5.96731L86.8551 0.0178989L88.3641 0L88.456 7.74512L87.4359 7.75722L87.3577 1.15836C87.3344 1.27083 87.3077 1.38421 87.2776 1.4985C87.2474 1.6128 87.2154 1.72625 87.1817 1.83883L85.2591 7.78304L84.2653 7.79483L82.2496 1.89733C82.2134 1.7996 82.1806 1.69481 82.1512 1.58297C82.1219 1.47113 82.0941 1.35051 82.0681 1.2211ZM91.2481 4.05927C91.1511 5.0466 91.3029 5.84087 91.7035 6.44208C92.1041 7.04328 92.7074 7.38348 93.5133 7.46267C94.3157 7.54152 94.9702 7.32491 95.4766 6.81283C95.9831 6.30076 96.2849 5.55106 96.3819 4.56372C96.4792 3.5729 96.3293 2.77793 95.932 2.17881C95.5347 1.5797 94.9348 1.24072 94.1324 1.16186C93.3265 1.08268 92.6686 1.29808 92.1588 1.80805C91.649 2.31804 91.3455 3.06845 91.2481 4.05927ZM90.1648 3.95282C90.2899 2.67941 90.7113 1.71602 91.4289 1.06266C92.1466 0.409303 93.0775 0.138846 94.2219 0.251283C95.3627 0.363392 96.2198 0.808671 96.7933 1.58712C97.3667 2.36558 97.5906 3.39327 97.4652 4.67017C97.34 5.94359 96.9204 6.90715 96.2063 7.56085C95.4921 8.21455 94.5646 8.48535 93.4238 8.37325C92.2795 8.2608 91.4189 7.81431 90.8422 7.03377C90.2655 6.25322 90.0397 5.22624 90.1648 3.95282ZM98.5474 6.18978L99.5428 6.3878C99.4436 6.93997 99.5395 7.41477 99.8304 7.8122C100.121 8.20963 100.564 8.4675 101.159 8.58584C101.747 8.7028 102.235 8.67119 102.623 8.49101C103.011 8.31084 103.247 8.00758 103.332 7.58123C103.447 7.00017 102.899 6.43182 101.687 5.87617C101.615 5.84393 101.559 5.81855 101.52 5.80003C100.537 5.35071 99.9098 4.94263 99.6379 4.57577C99.3659 4.20893 99.285 3.74872 99.3951 3.19516C99.5299 2.51783 99.8857 2.02298 100.463 1.7106C101.039 1.39823 101.739 1.32378 102.56 1.48725C103.399 1.65416 104.017 2.00123 104.412 2.52849C104.808 3.05575 104.934 3.69655 104.791 4.45089L103.805 4.26008C103.872 3.74439 103.777 3.31978 103.519 2.98625C103.262 2.65273 102.864 2.43227 102.324 2.32488C101.819 2.22434 101.393 2.25485 101.046 2.41642C100.699 2.578 100.489 2.84273 100.416 3.21062C100.299 3.79856 100.838 4.36143 102.032 4.89921C102.209 4.98085 102.344 5.04362 102.439 5.08752C102.459 5.09506 102.494 5.11084 102.542 5.13485C103.322 5.49363 103.823 5.81315 104.046 6.09342C104.215 6.30569 104.328 6.54535 104.385 6.81238C104.443 7.07942 104.442 7.36422 104.382 7.66679C104.236 8.39913 103.858 8.92976 103.247 9.25867C102.637 9.58758 101.885 9.66311 100.991 9.48527C100.069 9.30196 99.3979 8.92623 98.9765 8.35809C98.5552 7.78995 98.4122 7.06718 98.5474 6.18978ZM107.407 6.46027L109.102 6.95773C109.691 7.13047 110.13 7.15695 110.419 7.03717C110.708 6.9174 110.92 6.62877 111.054 6.17129C111.183 5.73064 111.16 5.38039 110.984 5.12055C110.808 4.86071 110.449 4.65133 109.908 4.49241L108.137 3.97274L107.407 6.46027ZM105.215 10.1957L107.396 2.76336L110.13 3.56582C110.574 3.69611 110.906 3.81717 111.125 3.929C111.345 4.04084 111.53 4.17387 111.682 4.32808C111.937 4.58174 112.097 4.89372 112.164 5.26402C112.231 5.63433 112.2 6.03644 112.073 6.47037C111.952 6.88412 111.764 7.2254 111.51 7.49422C111.255 7.76304 110.946 7.94623 110.581 8.04379C110.371 8.09912 110.139 8.11421 109.885 8.08904C109.632 8.06388 109.229 7.97036 108.677 7.80849L107.143 7.3584L106.224 10.4918L105.215 10.1957ZM111.721 12.1625L114.593 4.9688L115.569 5.35871L114.39 8.31334L118.121 9.80277L119.3 6.84813L120.282 7.23999L117.41 14.4337L116.429 14.0418L117.774 10.6721L114.043 9.18264L112.698 12.5524L111.721 12.1625ZM118.912 15.1414L122.451 8.25138L127.362 10.774L126.923 11.63L122.938 9.58305L121.88 11.6412L125.562 13.5319L125.148 14.3364L121.467 12.4457L120.28 14.7564L124.345 16.8441L123.903 17.7048L118.912 15.1414ZM129.529 13.1231L128.125 15.3397L129.644 16.3021C130.192 16.6492 130.635 16.8056 130.975 16.7715C131.314 16.7373 131.615 16.5129 131.877 16.0983C132.123 15.7104 132.19 15.3689 132.078 15.0739C131.966 14.779 131.623 14.4495 131.048 14.0855L129.529 13.1231ZM129.145 11.803L131.682 13.4099C132.093 13.6707 132.385 13.8803 132.556 14.0387C132.728 14.1971 132.864 14.3666 132.966 14.547C133.146 14.8726 133.222 15.2155 133.195 15.576C133.168 15.9365 133.039 16.2988 132.808 16.6631C132.585 17.0155 132.318 17.269 132.009 17.4235C131.699 17.5781 131.35 17.6317 130.961 17.5843C131.17 17.8168 131.276 18.0516 131.277 18.2889C131.278 18.5262 131.164 18.8546 130.936 19.2742L130.328 20.4015C130.196 20.6419 130.117 20.8336 130.091 20.9767C130.064 21.1198 130.082 21.2441 130.144 21.3496L130.029 21.5318L129.003 20.8817C129.006 20.6929 129.133 20.3647 129.384 19.8969C129.391 19.885 129.397 19.8761 129.401 19.8702L129.888 18.9836C130.136 18.5265 130.222 18.1831 130.148 17.9534C130.074 17.7237 129.722 17.4099 129.095 17.0122L127.655 16.1004L125.88 18.9034L125 18.3462L129.145 11.803ZM130.991 22.2881L135.544 16.0218L136.395 16.64L131.842 22.9063L130.991 22.2881ZM139.239 25.1484L140.023 25.8019C139.384 26.4968 138.656 26.8676 137.839 26.9142C137.021 26.9607 136.249 26.6809 135.523 26.0746C134.685 25.3763 134.267 24.5436 134.268 23.5766C134.269 22.6095 134.69 21.6212 135.532 20.6117C136.309 19.6802 137.175 19.1483 138.13 19.0158C139.085 18.8834 139.985 19.1697 140.831 19.8747C141.504 20.4361 141.91 21.0694 142.05 21.7749C142.189 22.4803 142.043 23.1612 141.609 23.8177L140.818 23.1576C141.07 22.7017 141.143 22.2501 141.037 21.803C140.93 21.3559 140.651 20.9438 140.199 20.5666C139.596 20.0636 138.952 19.8848 138.267 20.0301C137.582 20.1755 136.918 20.6332 136.276 21.4031C135.67 22.13 135.357 22.8571 135.336 23.5844C135.316 24.3118 135.592 24.9135 136.162 25.3895C136.65 25.7959 137.175 25.9774 137.739 25.9339C138.302 25.8903 138.802 25.6285 139.239 25.1484ZM144.479 29.7686L146.116 31.5423L147.815 28.3433L144.479 29.7686ZM140.595 30.3048L148.238 27.1657L149.026 28.0198L145.292 35.3942L144.518 34.5557L145.662 32.3837L143.594 30.1423L141.333 31.1047L140.595 30.3048ZM152.969 34.13L151.87 32.6931L147.179 36.2802L148.278 37.7171C148.749 38.3326 149.304 38.6448 149.944 38.6539C150.584 38.663 151.296 38.3684 152.078 37.77C152.827 37.1972 153.279 36.5984 153.432 35.9736C153.585 35.3489 153.431 34.7343 152.969 34.13ZM145.788 36.0198L151.941 31.3147L153.733 33.658C154.389 34.5157 154.635 35.3681 154.471 36.2153C154.307 37.0624 153.741 37.8554 152.775 38.5944C151.775 39.3588 150.817 39.7175 149.901 39.6703C148.984 39.6231 148.202 39.1762 147.555 38.3297L145.788 36.0198ZM156.515 39.4996L150.878 42.9307L150.375 42.1042L156.991 38.0771L157.773 39.3618L153.709 44.0825C153.594 44.2179 153.504 44.321 153.438 44.3917C153.373 44.4625 153.313 44.5221 153.261 44.5705C153.386 44.527 153.5 44.4908 153.601 44.4619C153.703 44.433 153.8 44.4084 153.895 44.3879L159.99 43.0047L160.775 44.2938L154.159 48.3209L153.628 47.4495L159.265 44.0184C159.157 44.0558 159.046 44.0906 158.932 44.1229C158.818 44.1552 158.704 44.1855 158.59 44.2139L152.496 45.5899L151.98 44.741L156.026 40.0005C156.091 39.9196 156.165 39.8379 156.246 39.7556C156.327 39.6734 156.417 39.588 156.515 39.4996ZM154.878 49.8485L161.778 46.3309L162.256 47.2679L155.355 50.7855L154.878 49.8485ZM156.151 52.2835L163.275 49.2433L163.727 50.3025L159.972 55.8384C159.891 55.9607 159.812 56.0706 159.736 56.1681C159.659 56.2655 159.584 56.349 159.511 56.4184L165.286 53.954L165.68 54.8777L158.556 57.918L158.108 56.8685L161.904 51.229C161.963 51.143 162.027 51.0597 162.095 50.979C162.164 50.8983 162.238 50.818 162.318 50.7381L156.543 53.2024L156.151 52.2835ZM159.078 59.5046L166.392 56.9568L166.738 57.9499L159.423 60.4978L159.078 59.5046ZM162.358 61.0744L162.631 62.0519C162.093 62.2128 161.713 62.5127 161.489 62.9517C161.266 63.3907 161.236 63.9023 161.399 64.4864C161.56 65.0638 161.809 65.4849 162.145 65.7497C162.48 66.0144 162.858 66.0884 163.276 65.9716C163.847 65.8124 164.107 65.0667 164.055 63.7344C164.051 63.6554 164.049 63.5942 164.048 63.5509C164.005 62.471 164.086 61.7269 164.29 61.3186C164.495 60.9103 164.869 60.6304 165.413 60.4787C166.078 60.2931 166.68 60.3871 167.219 60.7608C167.758 61.1344 168.14 61.7248 168.366 62.5318C168.595 63.3557 168.564 64.0631 168.273 64.6541C167.981 65.2451 167.466 65.6471 166.728 65.8602L166.453 64.8942C166.944 64.721 167.28 64.4444 167.461 64.0643C167.643 63.6843 167.659 63.2293 167.512 62.6991C167.373 62.2027 167.153 61.8364 166.853 61.6C166.552 61.3636 166.221 61.2958 165.86 61.3966C165.282 61.5577 165.023 62.2924 165.083 63.6006C165.09 63.7952 165.095 63.9448 165.099 64.0493C165.101 64.0705 165.102 64.1083 165.103 64.1627C165.135 65.0201 165.076 65.6115 164.926 65.9371C164.813 66.1834 164.65 66.3926 164.438 66.5646C164.226 66.7367 163.971 66.8641 163.674 66.947C162.955 67.1477 162.311 67.0499 161.742 66.6537C161.173 66.2574 160.765 65.6204 160.521 64.7424C160.268 63.8375 160.3 63.0688 160.617 62.4363C160.934 61.8039 161.514 61.3499 162.358 61.0744ZM162.102 70.5132L168.787 69.2462L168.332 66.8438L169.257 66.6686L170.364 72.5119L169.439 72.6871L168.984 70.2847L162.299 71.5516L162.102 70.5132ZM169.783 75.2109L167.173 75.4774L167.356 77.2664C167.422 77.9116 167.573 78.3569 167.809 78.6024C168.046 78.8478 168.408 78.9456 168.896 78.8958C169.353 78.8491 169.663 78.6907 169.826 78.4203C169.988 78.15 170.035 77.6766 169.966 77L169.783 75.2109ZM170.584 74.0932L170.889 77.0802C170.938 77.565 170.954 77.9237 170.935 78.1564C170.917 78.3891 170.868 78.6011 170.789 78.7925C170.644 79.1349 170.421 79.407 170.121 79.6085C169.821 79.81 169.457 79.9327 169.028 79.9765C168.613 80.0189 168.249 79.9662 167.936 79.8184C167.623 79.6706 167.365 79.4291 167.162 79.094C167.109 79.4024 166.989 79.6305 166.803 79.7781C166.618 79.9256 166.289 80.0393 165.818 80.1191L164.556 80.3378C164.286 80.383 164.086 80.4395 163.957 80.5073C163.829 80.575 163.742 80.6658 163.697 80.7796L163.483 80.8015L163.359 79.5931C163.51 79.4791 163.846 79.376 164.369 79.2839C164.383 79.2825 164.393 79.2814 164.4 79.2807L165.398 79.1154C165.911 79.0278 166.235 78.8838 166.369 78.6833C166.504 78.4828 166.533 78.0129 166.458 77.2735L166.285 75.5786L162.984 75.9156L162.878 74.8798L170.584 74.0932ZM166.758 83.3409L166.789 85.7543L170.191 84.5126L166.758 83.3409ZM163.512 81.1413L171.293 83.9203L171.308 85.0824L163.599 88.0661L163.585 86.9251L165.888 86.0758L165.85 83.0262L163.526 82.2297L163.512 81.1413ZM163.407 90.5662L170.195 91.0416L170.366 88.6024L171.305 88.6682L170.889 94.601L169.95 94.5352L170.121 92.096L163.333 91.6206L163.407 90.5662ZM163 95.001L170.683 95.9823L170.55 97.0255L162.866 96.0442L163 95.001ZM166.33 99.243C165.358 99.0472 164.552 99.1184 163.914 99.4565C163.275 99.7946 162.876 100.361 162.716 101.155C162.557 101.945 162.707 102.618 163.166 103.173C163.624 103.729 164.34 104.104 165.312 104.3C166.288 104.497 167.094 104.427 167.73 104.092C168.366 103.757 168.764 103.195 168.923 102.404C169.083 101.61 168.935 100.934 168.479 100.376C168.022 99.817 167.306 99.4395 166.33 99.243ZM166.545 98.176C167.8 98.4285 168.716 98.9446 169.294 99.7243C169.871 100.504 170.047 101.457 169.82 102.585C169.594 103.708 169.065 104.516 168.232 105.009C167.4 105.501 166.355 105.62 165.097 105.367C163.843 105.115 162.927 104.6 162.348 103.824C161.769 103.048 161.593 102.098 161.819 100.974C162.046 99.8467 162.577 99.0354 163.412 98.5401C164.246 98.0448 165.291 97.9234 166.545 98.176ZM160.949 105.88L168.343 108.19L167.999 109.29L161.55 111.065C161.408 111.105 161.277 111.138 161.156 111.162C161.034 111.187 160.923 111.201 160.822 111.207L166.815 113.079L166.516 114.038L159.122 111.728L159.463 110.639L166.011 108.812C166.111 108.784 166.214 108.762 166.318 108.745C166.423 108.728 166.531 108.715 166.644 108.707L160.651 106.834L160.949 105.88Z" fill="#263F78"/>
<path id="text4682" d="M13.0134 125.175L17.1452 122.72L17.6825 123.624L13.5416 126.085C12.9178 126.455 12.5386 126.867 12.4041 127.32C12.2696 127.773 12.3743 128.289 12.7181 128.868C13.0583 129.44 13.4636 129.777 13.9339 129.879C14.4043 129.981 14.9468 129.849 15.5616 129.484L19.7025 127.024L20.2424 127.932L16.1106 130.387C15.2185 130.917 14.4069 131.089 13.6757 130.901C12.9445 130.714 12.3139 130.174 11.7838 129.282C11.2896 128.45 11.1449 127.692 11.3499 127.008C11.5548 126.323 12.1093 125.712 13.0134 125.175ZM14.7298 133.532L15.6969 132.869L16.3065 133.758L15.3394 134.421L14.7298 133.532ZM18.2861 134.258L18.9098 135.059C18.4738 135.412 18.236 135.834 18.1963 136.325C18.1566 136.816 18.3231 137.3 18.6959 137.779C19.0643 138.252 19.4542 138.547 19.8655 138.664C20.2769 138.781 20.654 138.706 20.9969 138.439C21.4642 138.075 21.421 137.287 20.8671 136.074C20.8335 136.002 20.808 135.947 20.7904 135.907C20.3403 134.924 20.1323 134.205 20.1664 133.75C20.2004 133.295 20.4401 132.893 20.8853 132.547C21.43 132.122 22.0228 131.98 22.6635 132.121C23.3042 132.262 23.8821 132.662 24.397 133.323C24.9227 133.998 25.1629 134.664 25.1175 135.322C25.0721 135.979 24.7488 136.547 24.1475 137.024L23.526 136.235C23.9137 135.889 24.1193 135.505 24.1428 135.085C24.1663 134.664 24.0089 134.237 23.6706 133.803C23.3539 133.396 23.0115 133.141 22.6435 133.036C22.2756 132.932 21.9436 132.995 21.6478 133.226C21.1749 133.594 21.2144 134.372 21.7665 135.56C21.8468 135.737 21.9086 135.873 21.9517 135.969C21.9619 135.987 21.9776 136.022 21.9989 136.072C22.354 136.853 22.5244 137.422 22.51 137.78C22.4988 138.051 22.4278 138.306 22.2969 138.546C22.1659 138.786 21.9788 139.001 21.7355 139.19C21.1464 139.649 20.5134 139.804 19.8364 139.653C19.1594 139.503 18.5408 139.068 17.9806 138.349C17.4032 137.608 17.1407 136.885 17.1933 136.18C17.2459 135.474 17.6101 134.834 18.2861 134.258ZM21.109 141.825L21.9885 141.05L22.7015 141.858L21.8219 142.634L21.109 141.825ZM32.1671 143.402L30.8391 142.174L26.8297 146.509L28.1578 147.738C28.7266 148.264 29.3272 148.476 29.9595 148.376C30.5919 148.276 31.2425 147.864 31.9114 147.141C32.5516 146.448 32.8939 145.781 32.9383 145.139C32.9827 144.498 32.7256 143.919 32.1671 143.402ZM25.4149 146.49L30.6739 140.804L32.8397 142.806C33.6324 143.54 34.0202 144.337 34.0031 145.2C33.9859 146.063 33.5644 146.941 32.7385 147.834C31.884 148.758 31.0012 149.275 30.0901 149.385C29.179 149.495 28.3323 149.188 27.5499 148.465L25.4149 146.49ZM31.2803 151.777L36.0234 145.653L40.3885 149.034L39.7992 149.795L36.2573 147.052L34.8405 148.881L38.1122 151.415L37.5584 152.13L34.2866 149.596L32.6959 151.65L36.3086 154.448L35.7161 155.213L31.2803 151.777ZM40.1623 153.147L41.6438 154.11C42.1582 154.444 42.571 154.595 42.8823 154.563C43.1935 154.531 43.479 154.316 43.7388 153.916C43.9891 153.531 44.0672 153.188 43.9733 152.889C43.8793 152.59 43.5957 152.286 43.1225 151.979L41.5749 150.973L40.1623 153.147ZM36.991 156.097L41.2116 149.602L43.6014 151.155C43.9894 151.407 44.2724 151.618 44.4504 151.788C44.6284 151.958 44.7681 152.139 44.8696 152.33C45.0405 152.646 45.1048 152.991 45.0626 153.365C45.0203 153.739 44.8759 154.115 44.6295 154.495C44.3945 154.856 44.1167 155.129 43.7961 155.314C43.4754 155.498 43.1264 155.585 42.749 155.574C42.5321 155.567 42.3056 155.515 42.0697 155.418C41.8337 155.321 41.4747 155.116 40.9926 154.803L39.6522 153.932L37.8729 156.67L36.991 156.097ZM45.7047 157.704L47.8305 158.847L48.3932 155.269L45.7047 157.704ZM42.2077 159.478L48.4091 154.018L49.4327 154.568L48.3073 162.757L47.3022 162.217L47.6754 159.791L44.9892 158.346L43.1664 159.993L42.2077 159.478ZM52.9497 157.334L51.9087 159.742L53.5595 160.456C54.1548 160.713 54.6172 160.798 54.9468 160.712C55.2765 160.625 55.5386 160.356 55.7334 159.906C55.9156 159.484 55.9284 159.137 55.7718 158.863C55.6152 158.589 55.2248 158.317 54.6005 158.047L52.9497 157.334ZM52.3646 156.09L55.1207 157.281C55.568 157.474 55.8887 157.636 56.0828 157.765C56.2769 157.895 56.4381 158.041 56.5665 158.204C56.7948 158.497 56.9237 158.824 56.9532 159.184C56.9827 159.545 56.9119 159.923 56.7409 160.318C56.5753 160.701 56.3518 160.993 56.0701 161.194C55.7885 161.395 55.4518 161.503 55.06 161.517C55.3034 161.714 55.4441 161.929 55.4823 162.163C55.5205 162.397 55.4595 162.74 55.2993 163.19L54.8744 164.398C54.782 164.656 54.7339 164.858 54.7303 165.003C54.7266 165.149 54.7635 165.269 54.841 165.363L54.7555 165.561L53.6405 165.079C53.6144 164.892 53.6886 164.548 53.8632 164.047C53.8688 164.034 53.873 164.025 53.8758 164.018L54.2184 163.066C54.3921 162.576 54.4242 162.223 54.3149 162.008C54.2055 161.793 53.8097 161.538 53.1276 161.243L51.5637 160.567L50.2472 163.613L49.2915 163.2L52.3646 156.09ZM57.7721 166.605L59.9549 160.16L57.6389 159.376L57.9409 158.485L63.5739 160.392L63.2719 161.284L60.956 160.5L58.7732 166.944L57.7721 166.605ZM64.7241 161.901L63.1903 168.32L62.2492 168.095L64.0494 160.561L65.5122 160.911L66.0016 167.121C66.017 167.298 66.0268 167.434 66.0307 167.531C66.0347 167.627 66.0354 167.711 66.0327 167.783C66.0902 167.663 66.1443 167.557 66.1952 167.465C66.2461 167.372 66.2975 167.285 66.3494 167.204L69.66 161.902L71.1278 162.253L69.3276 169.786L68.3354 169.549L69.8692 163.131C69.8192 163.234 69.7657 163.337 69.7085 163.441C69.6514 163.544 69.5927 163.647 69.5325 163.748L66.2181 169.043L65.2514 168.812L64.7352 162.601C64.7239 162.498 64.7177 162.388 64.7165 162.272C64.7152 162.157 64.7178 162.033 64.7241 161.901ZM71.2501 170.098L72.3195 162.427L77.7879 163.189L77.6551 164.142L73.2178 163.524L72.8984 165.815L76.9971 166.386L76.8722 167.282L72.7735 166.711L72.4148 169.284L76.9407 169.915L76.8071 170.873L71.2501 170.098ZM78.3415 171.02L78.7299 163.284L79.88 163.341L83.2111 169.142C83.2855 169.269 83.3497 169.388 83.4038 169.499C83.4579 169.611 83.5 169.715 83.5303 169.811L83.8451 163.541L84.8482 163.591L84.4598 171.327L83.3202 171.27L79.9143 165.386C79.8626 165.296 79.8156 165.202 79.773 165.105C79.7305 165.008 79.6909 164.906 79.6542 164.799L79.3393 171.07L78.3415 171.02ZM88.0978 171.252L87.873 164.452L85.4292 164.532L85.3981 163.592L91.3421 163.395L91.3732 164.336L88.9294 164.417L89.1542 171.217L88.0978 171.252ZM96.158 166.803C96.3141 167.782 96.6619 168.512 97.2017 168.993C97.7414 169.473 98.4111 169.649 99.2108 169.522C100.007 169.395 100.585 169.02 100.946 168.396C101.306 167.773 101.408 166.971 101.252 165.991C101.096 165.008 100.75 164.277 100.214 163.798C99.6775 163.319 99.0114 163.143 98.2152 163.27C97.4154 163.397 96.8335 163.772 96.4694 164.394C96.1052 165.017 96.0015 165.819 96.158 166.803ZM95.0831 166.974C94.8819 165.71 95.0457 164.671 95.5746 163.858C96.1035 163.044 96.9357 162.547 98.0713 162.366C99.2033 162.186 100.145 162.4 100.897 163.008C101.649 163.616 102.126 164.553 102.327 165.82C102.529 167.084 102.366 168.122 101.841 168.935C101.316 169.749 100.487 170.245 99.3547 170.425C98.2192 170.606 97.2737 170.392 96.5182 169.783C95.7627 169.174 95.2843 168.237 95.0831 166.974ZM104.505 169.254L102.611 161.743L107.654 160.472L107.892 161.415L103.869 162.429L104.437 164.683L107.95 163.797L108.182 164.715L104.669 165.601L105.525 168.997L104.505 169.254ZM117.941 161.95L118.892 161.58C119.19 162.476 119.162 163.293 118.808 164.03C118.453 164.768 117.834 165.308 116.952 165.65C115.936 166.045 115.005 166.008 114.159 165.539C113.313 165.07 112.652 164.223 112.176 162.998C111.737 161.867 111.691 160.852 112.037 159.952C112.384 159.052 113.07 158.403 114.096 158.005C114.913 157.687 115.664 157.638 116.349 157.858C117.034 158.077 117.558 158.535 117.923 159.232L116.962 159.605C116.686 159.163 116.326 158.881 115.883 158.758C115.44 158.634 114.944 158.679 114.395 158.892C113.663 159.177 113.195 159.654 112.991 160.324C112.787 160.993 112.866 161.795 113.229 162.73C113.571 163.612 114.056 164.238 114.683 164.608C115.31 164.978 115.969 165.028 116.662 164.759C117.254 164.529 117.667 164.157 117.901 163.643C118.136 163.129 118.149 162.564 117.941 161.95ZM120.255 159.847C120.702 160.733 121.256 161.322 121.916 161.615C122.576 161.908 123.268 161.872 123.991 161.507C124.711 161.143 125.147 160.61 125.3 159.906C125.454 159.202 125.307 158.408 124.86 157.522C124.411 156.633 123.858 156.042 123.202 155.749C122.545 155.456 121.857 155.492 121.137 155.855C120.415 156.22 119.974 156.754 119.817 157.458C119.66 158.162 119.806 158.958 120.255 159.847ZM119.283 160.338C118.706 159.195 118.546 158.156 118.802 157.22C119.057 156.284 119.699 155.557 120.725 155.038C121.748 154.522 122.711 154.438 123.612 154.788C124.513 155.138 125.253 155.886 125.831 157.031C126.408 158.173 126.57 159.212 126.317 160.146C126.065 161.081 125.427 161.807 124.403 162.323C123.377 162.842 122.411 162.926 121.506 162.576C120.601 162.226 119.86 161.48 119.283 160.338ZM126.219 153.603L129.79 159.153L128.976 159.677L124.785 153.163L126.05 152.349L130.871 156.294C131.009 156.405 131.114 156.493 131.187 156.557C131.259 156.621 131.32 156.678 131.37 156.73C131.323 156.606 131.284 156.493 131.253 156.392C131.221 156.292 131.194 156.195 131.171 156.101L129.637 150.041L130.906 149.225L135.097 155.739L134.239 156.291L130.668 150.741C130.708 150.849 130.746 150.959 130.781 151.072C130.816 151.185 130.849 151.298 130.88 151.411L132.408 157.469L131.572 158.006L126.732 154.08C126.65 154.016 126.566 153.945 126.482 153.866C126.398 153.786 126.31 153.699 126.219 153.603ZM133.286 148.854L137.43 153.99L136.677 154.598L131.813 148.57L132.983 147.625L138.198 151.032C138.348 151.128 138.462 151.204 138.54 151.259C138.619 151.315 138.686 151.366 138.741 151.412C138.681 151.293 138.631 151.186 138.589 151.089C138.547 150.992 138.509 150.898 138.477 150.808L136.302 144.947L137.477 144L142.34 150.028L141.547 150.668L137.403 145.532C137.454 145.635 137.503 145.741 137.55 145.849C137.597 145.958 137.642 146.067 137.685 146.176L139.852 152.035L139.079 152.66L133.847 149.273C133.758 149.219 133.667 149.157 133.575 149.087C133.483 149.017 133.386 148.94 133.286 148.854ZM143.763 148.698L138.35 143.158L142.299 139.299L142.971 139.988L139.767 143.119L141.384 144.774L144.344 141.881L144.976 142.528L142.016 145.421L143.832 147.278L147.1 144.085L147.776 144.777L143.763 148.698ZM144.331 138.391L146.317 140.106L147.493 138.745C147.917 138.254 148.137 137.839 148.153 137.498C148.169 137.158 147.991 136.827 147.62 136.506C147.272 136.206 146.944 136.09 146.636 136.157C146.328 136.224 145.951 136.515 145.507 137.03L144.331 138.391ZM142.969 138.576L144.932 136.304C145.25 135.935 145.501 135.678 145.683 135.531C145.864 135.385 146.052 135.275 146.246 135.201C146.594 135.071 146.944 135.046 147.297 135.126C147.65 135.206 147.989 135.387 148.315 135.669C148.631 135.941 148.843 136.242 148.95 136.571C149.057 136.9 149.059 137.254 148.955 137.632C149.215 137.458 149.463 137.389 149.698 137.422C149.933 137.456 150.241 137.617 150.623 137.905L151.648 138.672C151.866 138.838 152.044 138.944 152.182 138.991C152.32 139.038 152.445 139.039 152.559 138.993L152.722 139.134L151.928 140.054C151.742 140.023 151.436 139.849 151.01 139.532C150.999 139.523 150.991 139.516 150.986 139.511L150.181 138.899C149.765 138.586 149.438 138.45 149.2 138.49C148.962 138.529 148.6 138.831 148.114 139.393L147.001 140.682L149.512 142.851L148.831 143.639L142.969 138.576ZM154.458 131.887L155.054 131.058C155.793 131.646 156.215 132.345 156.321 133.157C156.426 133.969 156.202 134.759 155.65 135.527C155.014 136.413 154.214 136.89 153.249 136.959C152.284 137.028 151.268 136.678 150.201 135.911C149.216 135.204 148.623 134.378 148.422 133.435C148.221 132.492 148.441 131.574 149.084 130.68C149.595 129.968 150.198 129.517 150.891 129.327C151.585 129.137 152.274 129.234 152.96 129.619L152.359 130.456C151.886 130.237 151.431 130.197 150.992 130.335C150.554 130.474 150.163 130.782 149.819 131.26C149.361 131.898 149.229 132.553 149.424 133.226C149.618 133.899 150.122 134.528 150.936 135.113C151.705 135.665 152.453 135.925 153.18 135.892C153.907 135.86 154.487 135.542 154.921 134.939C155.291 134.423 155.434 133.886 155.35 133.327C155.266 132.768 154.969 132.288 154.458 131.887ZM158.195 131.44L151.531 127.491L154.346 122.741L155.174 123.232L152.89 127.086L154.88 128.266L156.99 124.706L157.768 125.167L155.658 128.727L157.893 130.051L160.223 126.12L161.055 126.614L158.195 131.44Z" fill="#263F78"/>
</g>
</svg>
