<svg width="137" height="164" viewBox="0 0 137 164" fill="none" xmlns="http://www.w3.org/2000/svg">
<g id="Group">
<g id="Group_2">
<path id="Vector" d="M0.16705 20.4436C0.16705 9.1553 9.32245 -4.57764e-05 20.6172 -4.57764e-05H116.186C127.474 -4.57764e-05 136.629 9.1553 136.629 20.4436L136.623 94.9775C136.623 132.704 106.035 163.286 68.3083 163.286C30.5821 163.286 0 132.704 0 94.9775L0.16705 20.4436Z" fill="#564535"/>
<path id="Vector_2" d="M132.326 20.4434C132.326 11.5643 125.124 4.3622 116.245 4.3622H20.6762C11.7908 4.3622 4.58861 11.5643 4.58861 20.4434L4.40234 94.9773C4.40234 130.294 33.0374 158.923 68.3544 158.923C103.671 158.923 132.307 130.294 132.307 94.9773L132.326 20.4434Z" fill="#E6CEA5"/>
<path id="Vector_3" d="M120.117 111.483C121.858 106.195 121.999 100.695 121.999 94.8296V43.502H14.6992V94.8296C14.6992 100.676 15.6371 106.311 17.3654 111.579L120.117 111.483Z" fill="#FFD151"/>
<path id="Vector_4" d="M16.6136 111.483H120.104L123.13 93.0244C123.13 93.0244 92.837 81.447 91.7255 81.0422C89.8045 80.3355 87.3054 80.1105 85.288 81.3312C84.4528 81.8324 64.6838 93.4742 64.6838 93.4742L50.7162 96.8728C50.7162 96.8728 41.5353 94.1873 40.3981 93.8596C39.1838 93.5063 37.8346 93.4935 36.9351 93.9239C36.0614 94.348 15.2129 103.985 15.2129 103.985L16.6136 111.483Z" fill="#FAA225"/>
<path id="Vector_5" d="M103.993 111.483L104.134 110.333L105.265 107.937L103.96 103.754L90.4685 104.769L89.3505 111.483L16.5898 111.489C23.625 132.916 44.5314 148.477 68.3159 148.477C92.0747 148.477 113.032 132.884 120.08 111.483H103.993Z" fill="white"/>
<path id="Vector_6" d="M62.4876 42.8019C62.1985 44.2989 62.0508 45.847 62.0508 47.4339C62.0508 60.9195 72.9858 71.8546 86.4778 71.8546C99.9634 71.8546 110.898 60.9195 110.898 47.4339C110.898 45.7442 110.725 44.0996 110.404 42.5063L62.4876 42.8019Z" fill="#FFF100"/>
<path id="Vector_7" d="M88.9037 48.2786C88.9037 48.2786 86.4683 51.3163 85.7616 52.1837C85.0548 53.0446 75.7512 62.5039 70.0913 64.8425C67.1423 66.0568 65.1088 70.703 64.2288 71.2169C63.8497 71.4418 63.6586 70.9559 63.7871 70.3135C63.7871 70.3135 63.0482 70.6022 63.3052 69.9019C63.5622 69.1951 63.9758 67.8781 63.0442 68.135C62.3696 67.5247 64.0401 66.5409 63.3655 66.0269C62.8515 65.6414 62.7832 65.806 62.7832 65.806C62.7832 65.806 63.9156 63.5935 62.984 63.4971C62.0524 63.4008 61.8898 63.6879 61.8898 63.6879C61.8898 63.6879 63.0783 62.0877 62.3716 61.6701C61.6713 61.2525 61.3437 61.9552 61.0867 61.7303C60.8297 61.5055 62.2086 59.5579 61.3477 59.1403C60.4803 58.7227 59.9945 60.1558 59.4805 59.7125C58.9729 59.2628 60.7012 57.7867 60.123 57.1828C59.5447 56.5724 57.7558 58.5601 57.4024 59.1704C57.2739 59.3953 57.0511 59.4877 56.8905 59.0701C56.7298 58.6524 58.3702 56.4094 57.1816 56.3194C56.3528 56.2552 50.5003 62.791 48.4377 67.3721C47.1206 70.2825 47.0504 72.0204 47.725 73.2346C48.2325 74.1533 48.5963 76.2121 47.1829 77.5613C46.5147 78.1973 44.5728 77.997 43.9304 77.6116C43.2879 77.2262 42.3458 76.6488 41.7419 76.5074C40.4056 76.3789 36.9414 76.8889 36.4916 77.2101C36.0933 80.6345 36.0989 84.9306 39.6839 88.1626C43.2753 91.4007 46.1611 93.3265 47.5041 94.5473C48.8533 95.7615 51.9191 98.5146 53.7182 99.2855C53.5897 100.628 54.1402 104.353 55.3545 105.279C55.2902 105.503 55.3848 106.041 55.3848 106.041C55.3848 106.041 55.8024 106.459 56.0273 106.523C56.2521 106.588 56.5393 106.399 56.5393 105.821C56.5393 105.242 56.4108 105.724 56.3786 105.339C56.3468 104.953 56.5091 104.831 56.5091 104.445C56.5091 104.06 56.4088 103.582 56.4088 103.582C56.4088 103.582 55.9028 102.748 55.4852 102.498C55.4533 102.016 55.2583 100.795 55.5155 100.249C55.7725 99.7094 55.9974 99.3557 56.4792 99.3557C56.9547 99.3557 56.9209 99.7673 56.9209 100.088C56.9209 100.403 56.9513 101.494 56.9513 101.494C56.9513 101.494 57.8869 102.554 58.176 102.528C58.176 103.003 58.849 104.122 59.742 104.154C60.2881 104.475 61.3506 104.54 61.7297 104.315C62.2437 104.508 63.5552 104.829 64.3197 104.315C64.7052 104.475 67.3996 105.146 69.0379 104.284C70.0273 104.028 70.2526 103.415 70.2526 103.03C70.2526 102.644 69.9675 102.463 69.7105 102.206C69.839 101.757 69.9635 101.373 69.9314 100.891C69.8995 100.41 69.8671 99.5081 69.4495 98.8335C69.6101 98.4158 69.839 98.191 69.7105 97.7091C69.582 97.2337 69.2865 97.1108 68.9074 96.7253C69.1002 96.3398 68.9717 95.9182 68.5862 95.6612C68.2007 95.4042 67.3715 95.2492 66.729 94.6774C66.093 94.0992 65.2533 93.1937 64.9321 92.5191C64.6108 91.8509 64.1687 88.9674 61.6695 87.9716V87.3692C62.8838 86.5661 63.5893 86.4035 66.217 87.2387C66.6346 87.4636 67.4016 87.6881 67.5622 87.309C67.7228 86.9235 67.5262 86.5641 67.7831 86.275C68.0401 85.9859 68.7528 86.4075 68.9777 86.0542C69.1961 85.7008 69.1901 84.6022 69.2287 83.9661C69.3572 81.8524 78.7759 73.521 79.3479 68.5867C79.6371 68.2976 80.3819 67.9764 80.3819 67.623C80.3819 67.2761 80.2815 66.5087 80.2815 66.5087C81.8171 65.6735 82.464 64.2681 82.3997 63.8183C82.8494 63.5935 84.038 62.4109 83.524 61.4793C84.1601 61.0296 85.9514 59.1101 85.5017 57.9858C86.3048 57.0606 87.397 56.1206 87.1079 55.1248C88.0716 54.296 88.5555 53.0484 88.5233 51.802C89.0373 51.1274 89.8585 49.8484 89.3767 49.6236L87.5898 51.4205C88.6498 50.0777 89.5076 48.8568 88.9037 48.2786ZM32.4479 66.2885C30.3663 66.2885 28.42 67.1016 27.559 68.7078L26.6455 70.0932C26.3886 70.4787 25.6818 70.9517 25.5212 70.9966C25.2 71.093 21.5258 71.8299 21.5258 71.8299C22.2904 73.3654 23.6685 73.6569 24.4973 73.6569C25.3325 73.6569 26.7018 73.5096 28.2116 73.426C29.0597 73.3813 30.1583 73.7035 30.7815 74.0183C31.3854 74.3267 32.2813 74.5934 33.502 74.5805C34.4593 74.5677 35.7186 75.3535 36.0719 76.3172C36.5217 75.996 39.9693 75.476 41.312 75.6045C38.53 69.5847 36.1357 66.2885 32.4479 66.2885ZM95.2822 86.195C94.8943 86.1428 94.4767 86.2958 94.178 86.7873C90.8949 92.2037 89.9059 95.6407 89.1285 98.6731C88.2355 102.2 88.0503 107.97 88.1146 111.523H16.6094C17.708 114.954 19.1439 118.234 20.8658 121.331H62.2454C64.1086 121.331 64.9961 121.005 64.9961 120.427C64.9961 119.855 64.3873 119.574 63.9119 119.413C63.3336 119.22 53.1424 116.207 52.3072 115.95C51.4784 115.693 50.2593 115.245 50.2593 114.544C50.2593 113.838 52.3152 113.51 53.1504 113.51H87.0712C87.2575 113.401 87.4073 112.985 87.6835 112.998C87.645 112.735 87.6974 112.494 87.9546 112.366C88.0638 112.308 88.1726 112.383 88.1855 112.486C88.2369 112.782 88.2838 113.128 88.1551 113.36C88.0138 113.617 87.6704 113.522 87.8439 113.882C87.8568 113.914 87.9913 113.876 88.0748 113.902C88.2611 113.96 88.2366 114.211 88.1852 114.243C87.517 114.629 88.035 115.062 87.6431 115.518C87.5788 115.602 87.3255 115.436 87.1713 115.307C87.1713 115.397 87.1492 115.481 87.1815 115.558C87.2139 115.655 87.3133 115.756 87.4224 115.679C87.5124 115.621 87.5742 115.514 87.6834 115.578C87.7862 115.636 87.8609 115.736 87.9445 115.819C87.469 115.916 87.5084 116.296 87.1614 116.572C87.0779 116.636 86.9121 116.564 86.79 116.602C86.6872 116.628 86.5961 116.759 86.6796 116.823C86.7631 116.887 86.9723 116.799 87.0108 116.863C87.3128 117.332 87.4533 118.418 86.6695 118.54C86.6567 118.54 86.6346 118.706 86.6798 118.751C86.7245 118.789 86.8464 118.742 86.9107 118.781C87.0906 118.884 87.2993 119.064 87.1516 119.263C86.9524 119.526 86.4834 119.44 86.3485 119.594C85.9823 120.037 86.8488 120.628 86.489 121.18C86.1035 121.784 86.1175 122.477 85.6357 122.997C85.5072 123.132 85.2879 123.25 85.2944 123.379C85.3005 123.931 85.3835 124.555 84.953 124.844C84.6896 125.024 84.278 125.178 84.3808 125.557C84.4065 125.666 84.5438 125.715 84.6017 125.818C84.6659 125.927 84.3503 126.065 84.2603 126.129C84.1254 126.56 83.5412 126.814 83.5476 127.354C83.5476 127.617 82.9742 127.698 83.0256 127.846C83.2505 128.527 83.9439 128.043 84.2202 127.485C84.278 127.369 84.1739 127.303 84.1098 127.213C84.0391 127.111 84.1273 127.015 84.2302 126.983C84.3523 126.95 84.4832 126.972 84.6117 126.972C84.4768 126.458 84.9735 126.186 85.3847 126.109C85.4294 126.102 85.5136 126.231 85.6357 126.199C85.4558 125.795 85.4956 125.214 85.9067 124.945C86.0545 124.848 86.2031 125.135 86.4087 125.045C86.1067 124.814 86.0906 124.524 86.1678 124.151C86.2063 123.952 86.4605 124.065 86.499 124.001C86.8845 123.294 86.173 121.763 87.1816 121.622C87.3551 121.602 87.3242 121.828 87.292 121.963C87.2663 122.066 87.1696 122.136 87.0411 122.104V122.355C87.4009 122.162 87.5141 121.795 87.3021 121.461C87.5912 121.378 87.7245 121.095 87.9044 120.909C88.3413 120.453 88.2297 119.686 88.8079 119.243C88.9107 119.159 88.5926 118.954 88.7275 118.781C88.8753 118.594 89.0929 118.484 89.3499 118.51V118.249C89.0865 118.294 88.846 118.248 88.7175 117.998C88.6597 117.882 88.7514 117.798 88.848 117.747C89.1178 117.605 89.1572 117.966 89.3499 117.998C89.3181 117.876 89.3874 117.789 89.4904 117.757C89.5675 117.731 89.6479 117.737 89.7314 117.737C89.3523 117.139 90.0129 116.579 89.7817 115.93C89.737 115.788 89.9817 115.832 90.1231 115.819C89.9303 115.55 89.7894 115.231 89.8922 114.936C89.95 114.782 90.2945 114.715 90.3138 114.645C90.4808 114.041 90.3857 113.384 90.4242 112.748C90.4304 112.587 90.6519 112.429 90.896 112.487C90.9022 112.165 90.723 111.936 90.5045 111.724C90.9157 111.518 90.8234 110.784 91.408 110.951C91.3756 110.694 91.4891 110.476 91.669 110.328C91.7654 110.245 91.8521 110.349 91.91 110.439C92.0642 110.291 92.1023 109.954 92.3015 109.967C92.6805 109.986 93.0833 109.854 93.4559 110.047C93.5459 109.135 92.8669 108.622 92.3015 107.999C92.2691 108.128 92.3798 108.177 92.4119 108.26C92.5339 108.562 92.1047 108.449 92.0404 108.642C92.5673 108.513 92.8158 109.046 93.0342 109.425C93.06 109.469 92.9326 109.596 92.8234 109.525C92.7335 109.467 92.6495 109.341 92.5724 109.425C92.2705 109.733 91.9444 109.551 91.6489 109.455C91.5268 109.41 91.4051 109.686 91.2574 109.776C91.0453 109.911 90.9004 109.693 90.7655 109.545C91.2088 109.398 91.0462 108.944 91.2775 108.642C91.406 108.822 91.6408 108.806 91.6087 108.652C91.5059 108.119 91.9854 108.241 91.8697 107.759C91.8636 107.72 91.5401 107.782 91.5786 107.628C91.6557 107.345 92.16 107.59 92.3014 107.237C92.3913 107.32 92.4945 107.477 92.5523 107.458C92.7387 107.406 92.7411 107 92.9338 107.026C93.4542 107.097 93.0728 107.824 93.3554 107.939C93.5289 108.004 93.395 107.36 93.6968 107.417C94.063 107.488 94.2055 107.894 93.9678 108.261H94.2188C94.1864 108.139 94.2563 108.042 94.3593 108.01C94.4364 107.984 94.5452 108.034 94.5902 107.99C94.6349 107.945 94.6262 107.826 94.6005 107.749C94.5426 107.556 94.3198 107.675 94.2491 107.598C93.8508 107.187 94.1009 106.629 94.48 106.333C94.3258 106.179 94.3005 105.937 94.0885 105.821C94.3198 105.442 94.8574 105.582 95.0823 105.852C95.2558 106.064 94.8599 106.457 95.1426 106.695C95.2197 106.765 95.3975 106.681 95.4939 106.745C95.8216 106.964 95.4911 107.361 95.6646 107.598C95.7093 107.656 95.9324 107.674 96.0159 107.488C96.3307 107.707 96.0159 107.919 96.0159 108.131C96.138 108.099 96.2127 108.171 96.2769 108.261C96.0906 108.345 96.1059 108.548 96.1765 108.612C96.2793 108.715 96.5392 108.548 96.6484 108.773C96.7062 108.895 96.6278 108.96 96.538 109.024C96.7436 109.133 96.8186 109.366 96.8893 109.546C97.0242 109.874 96.7054 110.187 96.7889 110.56C96.8596 110.875 97.3897 111.158 97.0298 111.453C96.8595 111.588 96.7144 111.294 96.6785 111.132C96.6751 111.115 96.7124 111.107 96.6985 111.092C96.6908 111.085 96.6708 111.096 96.6584 111.092C96.5984 111.072 96.5049 111.06 96.4677 111.092C96.3906 111.176 96.4883 111.313 96.5781 111.313C96.6391 111.313 96.6457 111.23 96.6584 111.162C96.5218 111.802 97.3044 111.7 97.6222 112.146C97.8599 112.48 97.1399 112.243 97.2106 112.467C97.3134 112.782 97.7017 112.976 97.6824 113.381C97.933 113.291 97.9824 112.893 98.1944 112.919C98.5542 112.958 98.2432 113.241 98.365 113.491C98.3907 113.556 98.6734 113.455 98.6863 113.642C98.6924 113.732 98.5775 113.805 98.4554 113.772C98.4297 114.364 99.122 114.502 99.2183 114.837C99.379 115.376 98.1707 115.613 98.3249 116.332C98.6397 116.262 98.9762 116.407 99.1882 116.523C99.4581 116.677 99.6649 116.859 99.7805 117.135C100.012 117.669 99.1862 117.954 99.0577 118.41C98.987 118.648 99.4685 118.337 99.6098 118.33C100.246 118.33 99.6869 119.043 99.9311 119.454C99.9953 119.557 99.6592 119.503 99.4793 119.535C99.6464 119.702 99.1838 119.88 99.4793 120.047C99.852 119.462 100.884 119.037 101.417 119.705C101.481 119.789 101.407 119.918 101.407 120.047C101.721 120.021 101.855 119.837 101.778 119.535C101.444 119.907 101.237 119.222 101.276 119.023C100.929 119.048 100.551 119.225 100.262 119.103C100.121 119.045 99.7819 118.718 100.142 118.551C100.367 118.448 100.607 118.912 100.864 118.732C101.025 118.616 100.723 118.44 100.774 118.26C100.8 118.157 100.899 118.078 101.015 118.129C101.233 118.226 101.252 118.487 101.406 118.641C101.58 118.224 101.486 117.694 102.019 117.437C102.07 117.411 102.332 116.285 102.069 115.951C102.018 115.88 102.178 115.788 102.3 115.82C102.364 115.576 102.193 115.45 102.039 115.308C102.129 115.251 102.243 115.135 102.16 115.078C101.633 114.724 102.144 114.441 102.079 114.023C102.054 113.856 102.279 113.909 102.421 113.903C102.054 112.323 102.623 110.761 102.501 109.155C102.488 108.943 102.75 108.668 103.033 108.462C103.194 108.34 102.999 108.068 102.832 107.85C102.691 107.657 103.283 106.295 103.013 105.852C102.705 105.332 102.777 104.78 103.214 104.427C103.304 104.349 103.706 104.898 103.706 104.898C103.706 104.898 103.487 105.053 103.455 105.149C103.422 105.246 103.455 105.563 103.455 105.691C103.455 105.82 103.77 105.92 103.866 105.952C103.963 105.984 103.906 106.207 103.906 106.304C103.906 106.4 103.611 106.302 103.515 106.334C103.418 106.366 104.003 107.268 104.067 107.519C104.125 107.776 104.033 108.033 103.936 108.161C103.84 108.29 104.033 108.609 104.187 108.673C104.348 108.737 104.376 108.864 104.248 109.185C104.119 109.506 104.157 109.734 104.157 110.37C104.478 110.402 105.468 110.376 105.854 110.119C106.239 109.868 106.443 108.992 106.205 108.061C105.82 106.557 104.824 104.605 104.438 102.71C104.04 100.738 103.742 98.1944 103.485 95.8239C103.228 93.4531 102.102 90.479 100.644 87.5621C100.573 87.4144 100.211 86.8446 99.7803 86.7289C99.4912 86.6454 99.0286 87.1545 98.9772 87.7328C98.932 88.311 98.6267 89.9003 98.1641 90.8448C97.8429 90.5364 96.8499 89.661 96.7085 88.8772C96.5607 88.0934 96.4784 87.5011 96.1764 86.8394C96.0222 86.5117 95.6701 86.2473 95.2822 86.195ZM93.9671 104.927C93.9476 105.068 94.4474 105.102 94.0876 105.289C94.0362 105.314 93.9081 105.239 93.8567 105.168C93.7796 105.065 93.8773 104.985 93.9671 104.927ZM92.2907 105.078C92.3549 105.097 92.4369 105.254 92.4112 105.299C92.2634 105.568 91.9923 105.744 91.6583 105.68C91.5555 105.661 91.4644 105.53 91.5479 105.459C91.7663 105.273 91.9694 104.968 92.2907 105.078ZM92.4011 105.78C92.5689 105.77 92.7553 105.854 92.9833 106.021C93.2532 106.221 93.7399 105.671 94.0675 106.102C94.1318 106.192 94.1599 106.402 93.9671 106.453C93.4018 106.607 92.7332 106.319 92.2706 106.543C92.0393 106.653 91.808 106.327 91.9493 106.102C92.0843 105.893 92.2332 105.791 92.4011 105.78ZM93.3247 106.734C93.4403 106.818 93.7856 106.883 93.4451 107.096C93.3873 107.134 93.2713 107.121 93.1942 107.096C93.0978 107.064 93.0223 106.96 93.0737 106.845C93.1184 106.748 93.2154 106.657 93.3247 106.734ZM95.0613 107.226C95.0099 107.239 94.9445 107.298 94.951 107.336C94.9597 107.4 95.0347 107.41 95.1015 107.427C95.0949 107.439 95.0697 107.447 95.0712 107.457C95.0841 107.553 95.1901 107.616 95.3121 107.578C95.2381 107.516 95.4299 107.308 95.1916 107.347C95.2184 107.261 95.2447 107.18 95.0613 107.226ZM94.9277 107.75C94.8442 107.834 94.9483 107.971 95.0381 107.971C95.1281 107.971 95.232 107.834 95.1485 107.75C95.11 107.706 94.9727 107.706 94.9277 107.75ZM95.3594 108.272C95.2758 108.189 95.1514 108.276 95.1385 108.373C95.1323 108.411 95.2104 108.493 95.2489 108.493C95.3453 108.474 95.4365 108.349 95.3594 108.272ZM93.723 108.774C93.6395 108.858 93.7436 109.005 93.8335 109.005C93.9234 109.005 94.0274 108.858 93.9439 108.774C93.9053 108.73 93.768 108.73 93.723 108.774ZM94.6065 108.895C94.69 109.075 94.8466 109.031 94.9879 109.005C95.0393 108.999 95.0735 108.94 95.1185 108.895H94.6065ZM95.6304 108.895C95.6628 109.017 95.5898 109.081 95.4999 109.146C95.4614 109.017 95.5405 108.959 95.6304 108.895ZM94.0142 109.427C93.9307 109.51 94.0348 109.658 94.1246 109.658C94.2081 109.658 94.3186 109.51 94.235 109.427C94.1965 109.388 94.0528 109.388 94.0142 109.427ZM94.476 110.18C94.3603 110.115 94.2479 110.197 94.235 110.3C94.2289 110.333 94.3069 110.392 94.3454 110.431C94.4739 110.199 94.6647 110.613 94.6968 110.42C94.7096 110.35 94.5788 110.237 94.476 110.18ZM93.2914 110.23C93.24 110.236 93.181 110.312 93.181 110.351C93.2005 110.447 93.2934 110.513 93.4219 110.481C93.3384 110.41 93.5805 110.159 93.2914 110.23ZM92.7995 110.471C92.7481 110.484 92.6726 110.553 92.679 110.591C92.6919 110.688 92.7979 110.75 92.9199 110.712C92.8428 110.648 93.0822 110.4 92.7995 110.471ZM95.0482 110.873C95.0934 110.917 95.1309 110.977 95.1887 111.003C95.2979 111.054 95.3826 110.982 95.2991 110.893C95.2544 110.854 95.1317 110.873 95.0482 110.873ZM92.3679 110.943C92.3012 110.928 92.2318 110.958 92.1771 111.073C92.1257 111.189 92.1946 111.286 92.2976 111.324C92.3747 111.35 92.4935 111.359 92.5385 111.314C92.5832 111.294 92.5832 111.141 92.5385 111.083C92.4933 111.019 92.4345 110.957 92.3679 110.943ZM94.7872 111.164C94.7037 111.08 94.5692 111.181 94.5563 111.284C94.5501 111.323 94.6282 111.401 94.6667 111.395C94.7631 111.382 94.8643 111.247 94.7872 111.164ZM93.4521 111.194C93.2079 111.425 92.8461 111.515 92.6791 111.836C92.8012 111.798 92.8758 111.877 92.9401 111.967C92.9529 111.601 93.4778 111.586 93.4521 111.194ZM97.588 111.334C97.6716 111.399 97.6804 111.591 97.6483 111.656C97.6159 111.72 97.6051 111.689 97.4575 111.676C97.3162 111.656 97.1865 111.625 97.1865 111.625L97.1361 111.395L97.2666 111.374C97.2666 111.374 97.5109 111.27 97.588 111.334ZM104.013 111.515C103.961 112.106 103.872 112.848 103.782 113.503H119.422C119.66 112.848 119.883 112.183 120.095 111.515H104.013ZM91.7055 111.566C91.6397 111.565 91.5834 111.613 91.5449 111.716C91.5387 111.742 91.6167 111.827 91.6553 111.827C91.7452 111.827 91.8227 111.761 91.9063 111.716C91.842 111.623 91.7713 111.566 91.7055 111.566ZM98.5821 111.716C98.6977 111.658 98.8001 111.74 98.813 111.837C98.8448 112.132 98.8047 112.443 99.0941 112.61C98.8563 112.693 98.5339 113.103 98.3412 112.73C98.2448 112.544 98.719 112.676 98.552 112.509C98.3079 112.259 98.2414 111.89 98.5821 111.716ZM91.3945 111.997C91.3367 111.978 91.2135 112.115 91.2841 112.218C91.3484 112.308 91.4368 112.357 91.4046 112.479C91.5974 112.312 91.6261 112.087 91.3945 111.997ZM96.6546 112.228C96.6999 112.267 96.7337 112.323 96.7851 112.349C96.8944 112.4 96.9791 112.322 96.8955 112.238C96.8508 112.193 96.7446 112.228 96.6546 112.228ZM94.2152 112.509C94.2599 112.554 94.3044 112.61 94.3558 112.63C94.465 112.681 94.5497 112.613 94.4662 112.529C94.4209 112.484 94.3052 112.509 94.2152 112.509ZM94.9982 112.75C94.9404 112.763 94.8713 112.822 94.8778 112.861C94.8906 112.957 94.9966 113.03 95.1187 112.991C95.0416 112.927 95.2809 112.679 94.9982 112.75ZM96.7952 112.911C96.8399 112.955 96.8743 113.006 96.9257 113.031C97.0413 113.083 97.1297 113.014 97.0461 112.931C97.0014 112.886 96.8787 112.911 96.7952 112.911ZM91.274 113.122C91.3064 113.321 91.4065 113.486 91.535 113.634C91.5735 113.589 91.6454 113.548 91.6454 113.503C91.6454 113.458 91.5542 113.424 91.535 113.373C91.5093 113.295 91.5596 113.177 91.5149 113.132C91.4702 113.093 91.3574 113.122 91.274 113.122ZM92.9303 113.152C92.5962 113.068 92.2413 113.059 91.9265 113.162C91.8558 113.182 91.9727 113.372 92.0369 113.353C92.3645 113.25 92.6669 113.578 92.9303 113.353C92.9689 113.321 92.9499 113.152 92.9303 113.152ZM93.372 113.594C93.3206 113.606 93.2552 113.676 93.2616 113.714C93.2745 113.81 93.3805 113.873 93.5025 113.835C93.4254 113.77 93.6547 113.529 93.372 113.594ZM96.7652 113.744C96.8099 113.783 96.8442 113.845 96.8956 113.865C97.0113 113.916 97.0997 113.848 97.0161 113.764C96.9714 113.72 96.8487 113.744 96.7652 113.744ZM96.8956 113.865C96.8643 113.868 96.8453 113.854 96.8153 113.854C96.8605 113.899 96.8944 113.959 96.9458 113.985C97.055 114.036 97.1397 113.958 97.0562 113.875C97.0264 113.845 96.9579 113.859 96.8956 113.865ZM97.6786 113.764C97.7105 113.886 97.638 113.951 97.5482 114.015C97.6381 114.08 97.7393 114.157 97.6686 114.266C97.4057 114.673 97.2155 114.131 97.1265 114.186C97.1215 114.174 97.1471 114.166 97.1368 114.156C97.0983 114.111 96.9509 114.111 96.9059 114.156C96.8288 114.239 96.9362 114.38 97.0264 114.386C97.0927 114.386 97.1062 114.29 97.1067 114.216C96.9885 114.634 97.4529 114.801 97.8195 114.898C98.2756 115.027 97.9404 114.677 98.1909 114.658C97.6705 114.446 98.0468 114.338 98.0403 113.895C98.0342 113.715 97.82 113.771 97.6786 113.764ZM91.0935 114.015C91.0164 113.932 90.8919 114.033 90.8727 114.136C90.8727 114.168 90.9509 114.253 90.9831 114.246C91.0859 114.233 91.177 114.092 91.0935 114.015ZM91.6958 114.055C91.63 114.055 91.5738 114.097 91.5352 114.196C91.5224 114.222 91.6007 114.306 91.6456 114.306C91.7291 114.306 91.8131 114.241 91.8966 114.196C91.8324 114.106 91.7617 114.056 91.6958 114.055ZM59.04 114.537C58.4618 114.537 57.2431 114.666 57.2431 115.109C57.2431 115.72 58.2048 116.067 59.04 116.324C59.8688 116.581 68.5934 118.699 70.1929 119.085C71.7927 119.47 73.9374 120.488 73.9374 121.805C73.9374 123.341 70.7024 124.526 66.7899 124.526H22.7905C28.8041 133.778 37.55 141.091 47.8872 145.306C49.1336 145.255 53.3159 145.246 54.4723 144.603C55.1212 144.244 55.3959 143.298 54.914 142.816C54.6956 142.598 54.4065 143.249 54.111 143.499C53.4042 142.632 53.7291 141.061 54.7635 140.919C55.7786 140.778 56.8166 141.782 56.5403 142.977C56.7073 142.977 56.9165 143.041 57.0322 142.957C57.4755 142.623 57.288 141.905 57.7249 141.622C58.181 141.333 58.5484 141.969 58.799 142.425C58.9146 142.637 59.3615 142.356 59.4515 142.074C59.535 141.791 59.0588 141.519 59.2708 141.21C59.4507 140.941 59.847 140.832 60.104 140.979C60.5409 141.23 60.7565 141.871 61.2383 141.512C61.4953 141.319 61.7451 140.829 61.3789 140.598C61.1604 140.463 60.7718 140.602 60.6561 140.287C60.5533 140.011 60.6731 139.673 60.9171 139.564C61.9965 139.069 62.6265 140.281 63.2561 141.02C63.6095 141.424 64.1957 141.402 64.7419 141.19C63.7524 139.424 61.8908 138.012 61.8908 135.93C61.8908 135.185 62.7879 134.859 63.4368 134.776C65.3193 134.544 66.7757 134.565 68.4461 134.886C69.8274 135.156 71.0787 135.434 72.4215 135.248C73.7128 135.074 75.9511 134.01 75.6941 133.792C75.193 133.368 75.264 132.577 75.7844 132.417C78.8876 131.472 80.8556 129.024 82.8214 126.614C83.0077 126.389 84.8576 124.373 84.4978 123.03C83.9582 121.032 83.2129 119.033 83.5341 116.977C83.6947 115.924 85.2463 114.968 85.7025 114.538L59.04 114.537ZM103.562 114.537C103.26 116.51 102.931 118.363 102.738 119.115C102.514 119.976 102.61 120.587 102.738 121.133C103.04 122.424 103.166 123.986 103.14 125.168C103.114 126.312 101.262 126.503 100.369 125.68C99.7911 126.336 99.3478 127.038 98.7632 127.668C97.6838 128.837 96.5382 129.923 95.099 130.629C93.7241 131.304 92.3087 131.838 90.953 132.487C89.9187 132.975 89.8367 134.447 89.0657 135.398C88.5196 136.072 88.0205 136.785 87.2688 137.145C86.1188 137.703 85.7714 136.29 85.5723 135.307C85.4887 134.928 84.9085 134.756 84.6387 134.866C83.5914 135.277 82.5606 135.862 82.0788 136.974C81.7447 137.719 81.7821 138.456 81.9684 139.253C82.0262 139.516 82.7462 139.814 82.7012 139.544C82.592 138.837 82.5595 138.232 83.0927 137.757C83.4525 137.436 83.9677 137.542 84.3275 137.767C84.8157 138.076 84.1974 138.567 83.9661 138.881C84.056 138.946 84.1351 139.014 84.0966 139.142C84.3536 139.142 84.631 139.209 84.8494 139.112C85.6847 138.739 86.2902 137.973 87.2989 138.249C87.4916 138.3 87.4607 138.505 87.4093 138.62C87.2615 138.974 86.6528 138.995 86.9676 139.162C88.1048 139.786 88.4943 138.363 89.156 137.657C89.4066 137.387 89.829 137.985 90.2402 137.837C90.343 137.799 90.449 137.699 90.4811 137.596C90.5839 137.23 90.3169 136.985 90.1498 136.683C89.9185 136.259 90.2876 135.802 90.4611 135.468C90.6731 135.063 91.2513 134.531 91.746 134.846C92.0159 135.013 92.6218 135.243 92.3584 135.629C92.1464 135.937 91.7476 136.167 91.9468 136.552C92.223 137.086 92.7587 137.467 93.292 137.165C94.0051 136.766 94.9279 135.994 94.1954 134.966C93.8485 134.478 94.0075 133.704 94.4765 133.119C94.9777 132.489 95.794 132.051 96.4943 132.527C96.7128 132.681 97.0541 132.925 96.9963 133.239C96.8999 133.779 95.9418 133.6 96.1731 134.133C96.6485 135.232 97.7781 134.538 98.1507 133.741C98.3756 133.266 97.9804 132.762 97.7491 132.306C97.3058 131.439 98.0129 130.45 98.9638 130.489C99.0216 130.489 99.3409 130.481 99.3152 130.68C99.2638 131.084 99.2051 131.471 99.6163 131.683C99.7577 131.754 99.9632 131.754 100.098 131.683C100.869 131.272 101.208 130.512 101.504 129.696C101.664 129.246 102.197 128.833 102.698 128.531C102.917 128.396 103.408 128.583 103.26 128.853C103.068 129.212 102.838 129.687 103.21 129.887C103.596 130.086 103.926 129.788 104.003 129.505C104.144 128.991 104.158 128.437 104.736 128.27C105.224 128.129 105.817 128.242 105.81 128.762C105.81 129.103 105.096 129.164 105.147 129.646C105.173 129.915 105.379 130.175 105.629 130.278C106.028 130.439 106.48 130.189 106.583 129.887C106.846 129.096 107.213 128.284 107.958 127.899C108.633 127.558 109.365 128.259 109.223 128.863C109.108 129.357 108.014 129.275 108.38 130.007C108.502 130.245 109.859 129.992 109.705 130.198C113.637 125.578 116.818 120.294 119.041 114.537H103.562ZM101.534 114.798C101.572 114.792 101.625 114.867 101.644 114.919C101.67 114.996 101.679 115.115 101.634 115.16C101.55 115.243 101.448 115.135 101.403 115.039C101.352 114.924 101.437 114.811 101.534 114.798ZM91.6756 114.869C91.7209 114.914 91.7547 114.963 91.8061 114.989C91.9218 115.04 92.0001 114.968 91.9165 114.879C91.8718 114.834 91.7591 114.869 91.6756 114.869ZM97.0966 115.009C97.0308 115.008 96.9645 115.057 96.926 115.16C96.9198 115.185 96.9978 115.27 97.0364 115.27C97.1263 115.27 97.2139 115.205 97.2974 115.16C97.2331 115.066 97.1625 115.01 97.0966 115.009ZM96.414 115.2C96.3305 115.2 96.2401 115.184 96.163 115.21C96.1116 115.223 96.0462 115.295 96.0526 115.32C96.1297 115.558 96.371 115.435 96.5445 115.461C96.4546 115.403 96.3819 115.328 96.414 115.2ZM95.5004 115.892C95.4169 115.976 95.521 116.113 95.6108 116.113C95.7008 116.113 95.8148 115.976 95.7313 115.892C95.6866 115.854 95.539 115.854 95.5004 115.892ZM101.775 115.953C101.897 116.049 102.012 116.262 101.775 116.294C101.698 116.307 101.557 116.17 101.544 116.073C101.538 115.99 101.672 115.876 101.775 115.953ZM99.4958 115.963C99.5922 115.899 99.7737 115.893 99.8572 116.073C99.5745 116.125 99.6528 116.564 99.4858 116.525C99.2416 116.467 99.245 116.111 99.4958 115.963ZM86.1441 116.073C86.2212 116.138 85.9919 116.385 86.2746 116.314C86.3774 116.289 86.4685 116.167 86.385 116.083C86.3465 116.045 86.2276 116.073 86.1441 116.073ZM97.5278 116.104C97.4507 116.187 97.5581 116.314 97.6483 116.314C97.7382 116.314 97.8358 116.187 97.7587 116.104C97.7134 116.059 97.5728 116.059 97.5278 116.104ZM95.8513 116.144C95.7678 116.227 95.8719 116.375 95.9617 116.375C96.0517 116.375 96.1593 116.227 96.0822 116.144C96.037 116.105 95.8899 116.105 95.8513 116.144ZM96.5139 116.144C96.4304 116.227 96.5345 116.375 96.6243 116.375C96.7078 116.375 96.8182 116.227 96.7347 116.144C96.6962 116.105 96.5525 116.105 96.5139 116.144ZM101.674 116.465C101.751 116.388 101.873 116.489 101.905 116.585C101.937 116.708 101.773 117.442 101.664 117.429C101.227 117.358 101.404 116.741 101.674 116.465ZM98.1201 116.806C98.0542 116.806 97.998 116.857 97.9594 116.957C97.9466 116.983 98.0249 117.067 98.0698 117.067C98.1534 117.067 98.2309 116.992 98.3208 116.947C98.2566 116.857 98.1859 116.807 98.1201 116.806ZM89.2158 116.877C89.3636 116.915 89.4925 117.149 89.4668 117.348C89.454 117.451 89.3443 117.495 89.2158 117.489C89.0681 117.483 88.8994 117.522 88.8545 117.348C88.7838 117.066 88.9396 116.799 89.2158 116.877ZM94.4261 116.967C94.4708 117.005 94.5052 117.062 94.5566 117.087C94.6658 117.139 94.757 117.061 94.667 116.977C94.6284 116.932 94.5095 116.967 94.4261 116.967ZM109.404 117.087C109.834 117.087 110.177 117.436 110.177 117.86C110.177 118.291 109.834 118.633 109.404 118.633C108.98 118.633 108.631 118.291 108.631 117.86C108.631 117.436 108.98 117.087 109.404 117.087ZM98.964 117.358C98.8982 117.357 98.8419 117.396 98.8034 117.499C98.7905 117.525 98.8688 117.609 98.9138 117.609C98.9973 117.609 99.0913 117.544 99.1748 117.499C99.1105 117.409 99.0299 117.36 98.964 117.358ZM98.2714 117.429C98.3161 117.474 98.3505 117.523 98.4019 117.549C98.5111 117.601 98.5958 117.522 98.5123 117.439C98.4676 117.394 98.3613 117.429 98.2714 117.429ZM84.8595 117.609C84.7503 117.558 84.6591 117.636 84.7491 117.72C84.7877 117.765 84.9066 117.73 84.99 117.73C84.9448 117.692 84.9109 117.635 84.8595 117.609ZM100.761 117.62C100.87 117.549 100.976 117.637 101.002 117.74C101.028 117.837 101.117 118.099 100.912 117.951C100.847 117.912 100.408 117.845 100.761 117.62ZM97.1873 117.76C97.1038 117.844 97.2079 117.991 97.2977 117.991C97.3877 117.991 97.4852 117.844 97.4081 117.76C97.3634 117.716 97.2259 117.716 97.1873 117.76ZM96.575 117.961C96.4915 118.045 96.6017 118.172 96.6854 118.172C96.7753 118.178 96.8793 118.045 96.7958 117.961C96.7572 117.916 96.6135 117.916 96.575 117.961ZM94.3966 118.172C94.4418 118.21 94.4757 118.267 94.5271 118.292C94.6427 118.344 94.721 118.266 94.6375 118.182C94.5922 118.137 94.4801 118.172 94.3966 118.172ZM98.3418 118.423C98.2759 118.421 98.2197 118.471 98.1812 118.573C98.1683 118.599 98.2466 118.684 98.2916 118.684C98.3751 118.684 98.4626 118.608 98.5526 118.563C98.4883 118.473 98.4077 118.424 98.3418 118.423ZM99.1951 118.774C99.1293 118.773 99.073 118.822 99.0345 118.925C99.0216 118.95 99.0899 119.035 99.1349 119.035C99.2184 119.035 99.3123 118.97 99.3959 118.925C99.3316 118.832 99.2609 118.775 99.1951 118.774ZM88.2026 118.885C88.3439 118.942 88.5475 119.004 88.5539 119.146C88.5796 119.473 88.3282 119.769 88.052 119.878C88.0067 119.898 87.8347 119.735 87.8411 119.658C87.854 119.381 88.0998 119.154 88.2026 118.885ZM95.2498 119.035C95.2945 119.08 95.3189 119.13 95.3703 119.156C95.4859 119.207 95.5742 119.129 95.4907 119.045C95.446 119.001 95.3333 119.035 95.2498 119.035ZM97.0367 119.146C96.9532 119.146 96.8628 119.13 96.7857 119.156C96.7343 119.175 96.6689 119.241 96.6753 119.266C96.7524 119.498 96.9937 119.375 97.1672 119.407C97.0772 119.343 97.0046 119.268 97.0367 119.146ZM85.0003 119.286C84.8975 119.306 84.7963 119.44 84.8798 119.517C84.9569 119.6 85.0914 119.499 85.1107 119.396C85.1107 119.364 85.0324 119.286 85.0003 119.286ZM94.5572 119.346C94.4488 119.369 94.3251 119.416 94.2159 119.407C94.3765 119.522 94.5416 119.689 94.7279 119.637C94.7921 119.618 94.8704 119.459 94.8383 119.427C94.7644 119.324 94.6657 119.323 94.5572 119.346ZM98.3217 119.658C98.3217 119.741 98.2868 119.86 98.332 119.898C98.4091 119.976 98.5002 119.904 98.4424 119.788C98.4167 119.737 98.3667 119.696 98.3217 119.658ZM100.872 119.979C100.701 119.981 100.513 120.098 100.41 120.32C100.223 120.699 100.46 121.059 100.781 121.284C100.852 121.335 101.046 121.198 101.143 121.063C100.719 120.902 100.423 120.507 100.892 120.18C101.039 120.077 101.17 120.698 101.183 120.3C101.189 120.088 101.042 119.976 100.872 119.979ZM110.047 119.999C110.246 119.999 110.419 120.161 110.419 120.36C110.419 120.559 110.246 120.732 110.047 120.732C109.848 120.732 109.686 120.559 109.686 120.36C109.686 120.161 109.848 119.999 110.047 119.999ZM95.8926 120.069C95.8284 120.069 95.7537 120.208 95.6316 120.169C95.7216 120.285 95.4537 120.541 95.7621 120.541C95.8456 120.541 95.9609 120.491 95.993 120.42C96.0377 120.305 96.0725 120.063 95.8926 120.069ZM87.5707 120.32C88.0012 120.166 87.6916 120.532 87.9422 120.551C87.8137 120.737 87.6671 120.757 87.5707 120.551C87.5384 120.48 87.5384 120.333 87.5707 120.32ZM96.6559 120.37C96.5081 120.364 96.1311 120.633 96.3045 120.923C96.3364 120.98 96.5274 120.943 96.6559 120.943C96.4888 120.731 97.0414 120.377 96.6559 120.37ZM94.6381 120.461C94.4775 120.621 94.9039 120.463 94.8589 120.682C94.9682 120.624 95.2183 120.589 95.0898 120.461C94.9999 120.371 94.7216 120.371 94.6381 120.461ZM107.738 121.224C108.04 121.224 108.291 121.474 108.291 121.776C108.291 122.078 108.04 122.318 107.738 122.318C107.436 122.318 107.196 122.078 107.196 121.776C107.196 121.474 107.436 121.224 107.738 121.224ZM102.036 122.599C101.323 123.261 101.298 124.245 101.253 125.048C101.228 125.498 102.103 125.546 102.418 125.038C102.521 124.878 102.227 124.824 102.297 124.657C102.24 124.747 102.162 124.829 102.046 124.777C101.667 124.61 101.789 124.236 102.046 124.024C102.098 123.98 102.214 124.014 102.297 124.014C102.214 124.014 102.117 124.036 102.046 124.004C101.815 123.907 101.907 123.675 101.926 123.502C101.939 123.405 102.045 123.339 102.167 123.371C102.205 123.101 101.946 122.882 102.036 122.599ZM99.6069 123.011C99.3307 123.075 99.3885 123.599 98.9645 123.503C98.9259 123.785 99.1512 123.556 99.2155 123.633C99.1831 123.511 99.291 123.376 99.3359 123.402C99.6379 123.569 99.3791 124.034 99.617 124.265C99.6684 124.304 99.8122 124.304 99.8379 124.265C99.9471 124.079 99.7508 123.807 99.9885 123.633C100.072 123.813 100.229 123.757 100.37 123.764C100.28 123.648 100.558 123.401 100.249 123.382C99.9539 123.369 99.9025 122.94 99.6069 123.011ZM110.308 123.161C110.533 123.161 110.71 123.338 110.71 123.563C110.71 123.788 110.533 123.974 110.308 123.974C110.083 123.974 109.896 123.788 109.896 123.563C109.896 123.338 110.083 123.161 110.308 123.161ZM98.4022 123.482C98.3283 123.473 98.2504 123.5 98.2215 123.533C98.1122 123.655 98.2559 123.795 98.4423 123.744C98.4937 123.731 98.5692 123.672 98.5628 123.633C98.5469 123.537 98.476 123.492 98.4022 123.482ZM93.4531 123.633C93.5431 123.749 93.2716 124.02 93.5736 123.994C93.7663 123.982 93.7012 123.774 93.7141 123.633H93.4531ZM94.5774 123.784C94.4361 123.655 94.3574 123.944 94.2161 124.015C94.2803 124.105 94.355 124.18 94.4771 124.135C94.6634 124.064 94.6481 123.842 94.5774 123.784ZM95.3073 124.01C95.243 123.998 95.2029 124.015 95.2672 124.14C95.28 124.173 95.5138 124.29 95.4881 124.02C95.4557 124.058 95.3715 124.022 95.3073 124.01ZM97.9274 124.02C97.8956 124.206 97.9027 124.514 98.0378 124.482C98.3141 124.411 97.9852 124.187 97.9274 124.02ZM98.7004 124.151C98.604 124.671 99.4561 124.613 99.2826 125.024C99.1541 125.32 98.9875 125.68 98.5699 125.687C98.6534 125.924 98.3466 126.242 98.4494 126.249C99.169 126.313 99.6404 125.255 99.3128 124.542C99.2932 124.51 99.159 124.548 99.0819 124.522C98.9791 124.49 98.9634 124.384 98.9313 124.281C98.9117 124.217 98.7839 124.196 98.7004 124.151ZM107.986 124.512C108.211 124.512 108.388 124.689 108.388 124.914C108.388 125.145 108.211 125.325 107.986 125.325C107.761 125.325 107.574 125.145 107.574 124.914C107.574 124.689 107.761 124.512 107.986 124.512ZM98.4193 125.064C98.3421 124.987 98.261 125.052 98.3189 125.175C98.3446 125.226 98.3944 125.266 98.4393 125.305C98.4393 125.221 98.464 125.103 98.4193 125.064ZM97.8069 125.958C97.7683 126.003 97.7683 126.143 97.8069 126.188C97.8516 126.233 97.9928 126.233 98.0378 126.188C98.0763 126.144 98.0763 126.003 98.0378 125.958C97.993 125.919 97.8519 125.919 97.8069 125.958ZM94.5945 126.068C94.6587 126.441 94.5222 126.888 94.0725 126.971C94.413 127.505 94.7977 128.103 95.498 128.046C95.5687 128.039 95.7253 128.274 95.8795 128.377C95.6417 128.531 95.5799 128.749 95.6185 129.019C95.7405 128.981 95.7895 129.082 95.8795 129.14C95.9887 129.21 96.0882 129.112 96.1204 129.009C96.1461 128.932 96.0957 128.83 96.1404 128.778C96.3845 128.496 96.664 128.732 96.7026 128.256C96.7221 127.993 97.2804 128.225 97.4153 127.865C97.4601 127.743 97.3747 127.668 97.2848 127.604C97.6575 127.418 98.2618 127.206 98.0177 126.731C97.9858 126.673 97.7727 126.673 97.6763 126.731C97.2523 126.975 97.4314 127.698 97.0138 127.795C96.564 127.904 96.4452 128.447 96.1303 128.768C95.9697 128.242 95.8713 127.798 95.3574 127.483C95.5372 127.361 95.5629 127.193 95.3574 127.122C95.2032 127.064 94.9903 127.143 94.8554 127.072C94.4057 126.828 95.0815 126.558 94.9658 126.198C94.9016 126.012 94.7358 126.074 94.5945 126.068ZM95.6185 126.59C95.6955 126.654 95.4534 126.895 95.749 126.831C95.8389 126.811 95.9698 126.755 95.9698 126.71C95.976 126.531 95.7598 126.596 95.6185 126.59ZM92.8277 126.741C92.5771 126.946 92.2414 127.391 92.4663 127.514C92.8197 127.713 92.6458 128.425 93.179 128.226C93.2433 128.201 93.3023 128.028 93.2894 128.015C92.8076 127.643 93.1389 127.408 93.1389 126.971C93.1389 126.894 92.9819 126.612 92.8277 126.741ZM96.6424 126.841C96.4754 127.008 96.2818 127.157 96.1405 127.363C96.0634 127.466 96.1959 127.61 96.2408 127.584C96.5492 127.423 96.7773 127.246 96.6424 126.841ZM73.7039 127.212C74.205 127.212 74.6074 127.625 74.6074 128.126C74.6074 128.627 74.205 129.029 73.7039 129.029C73.2028 129.029 72.8004 128.627 72.8004 128.126C72.8004 127.625 73.2028 127.212 73.7039 127.212ZM93.9522 128.246C93.8623 128.246 93.7562 128.228 93.7113 128.266C93.6342 128.344 93.7062 128.425 93.8217 128.367C93.8731 128.341 93.9072 128.291 93.9522 128.246ZM91.6433 128.507C91.5598 128.514 91.4381 128.479 91.4124 128.518C91.3482 128.614 91.3924 128.761 91.3924 128.889C91.5273 128.876 91.7437 128.949 91.7437 128.769C91.7437 128.704 91.9324 128.475 91.6433 128.507ZM83.0603 128.638C82.7584 128.998 82.1673 128.791 81.936 129.17C81.8589 129.292 81.8143 129.622 82.0264 129.622C82.2448 129.622 82.0906 129.301 82.187 129.16C82.2127 129.121 82.3629 129.115 82.4078 129.16C82.4525 129.205 82.4181 129.321 82.4181 129.411C82.3282 128.993 82.8193 129.036 83.0506 128.869C83.0891 128.836 83.0603 128.721 83.0603 128.638ZM92.5371 128.638C92.4472 128.702 92.356 128.78 92.4267 128.889C92.4846 128.972 92.5822 129.028 92.5371 129.15C92.3958 129.497 91.8983 129.648 92.0653 130.033C92.0848 130.078 92.3444 130.088 92.3765 130.023C92.4729 129.862 92.3853 129.623 92.4368 129.411C92.501 129.134 93.0363 129.106 92.8885 128.778C92.8628 128.714 92.6207 128.818 92.5371 128.638ZM93.541 128.778C93.4767 128.688 93.3559 128.792 93.3302 128.889C93.2916 129.056 93.3548 129.274 93.541 129.12C93.6052 129.062 93.6052 128.862 93.541 128.778ZM65.3722 129.049C65.9247 129.049 66.366 129.497 66.366 130.043C66.366 130.596 65.9247 131.047 65.3722 131.047C64.8197 131.047 64.3784 130.596 64.3784 130.043C64.3784 129.497 64.8197 129.049 65.3722 129.049ZM95.1071 129.16C95.0043 129.198 94.9352 129.285 94.9866 129.401C95.0123 129.452 95.0621 129.486 95.1071 129.531C95.1778 129.39 95.4472 129.34 95.338 129.16C95.3123 129.121 95.1842 129.134 95.1071 129.16ZM94.2036 129.28C94.1201 129.28 94.0177 129.245 93.9727 129.291C93.9275 129.335 93.9527 129.442 93.9527 129.531C94.0748 129.493 94.1651 129.565 94.2037 129.662C94.2294 129.739 94.2294 129.836 94.2037 129.913C94.1713 130.016 94.0748 130.082 93.9527 130.043C93.9203 130.166 94.0081 130.237 94.0531 130.154C94.0978 130.07 94.1109 129.955 94.2137 129.923C94.2908 129.897 94.4189 129.948 94.4446 129.903C94.6309 129.64 94.1843 129.537 94.2036 129.28ZM91.1217 129.291C91.0318 129.213 90.9165 129.308 90.8908 129.411C90.8523 129.578 90.8991 129.746 90.8605 129.913C90.8348 130.016 90.7416 130.082 90.6196 130.044C90.8445 130.397 90.4807 130.941 91.0011 131.198C91.0011 130.986 90.9569 130.765 91.0211 130.566C91.1239 130.244 91.3865 130.303 91.6435 130.425C91.5343 130.014 91.4494 129.586 91.1217 129.291ZM93.5712 129.793C93.3591 130.05 92.9737 130.157 92.9287 130.555C93.3527 130.478 93.5005 130.165 93.5712 129.793ZM91.4128 130.716C91.3486 130.761 91.3486 130.996 91.4128 131.047C91.5285 131.131 91.7534 131.118 91.8947 131.047C91.9271 131.035 91.9297 130.884 91.8844 130.827C91.7752 130.653 91.5413 130.62 91.4128 130.716ZM57.4921 130.726C58.141 130.726 58.6666 131.246 58.6666 131.901C58.6666 132.55 58.141 133.086 57.4921 133.086C56.8432 133.086 56.3075 132.55 56.3075 131.901C56.3075 131.246 56.8432 130.726 57.4921 130.726ZM80.2399 130.937C80.2399 131.021 80.2682 131.146 80.2296 131.178C79.8634 131.422 79.6056 131.327 79.7277 131.841C79.9654 131.744 80.216 131.716 80.3701 131.459C80.5179 131.215 80.1821 131.136 80.2399 130.937ZM86.9057 131.981C86.8094 131.994 86.7238 132.107 86.7752 132.222C86.82 132.325 86.9106 132.404 87.0262 132.353C87.1226 132.308 87.2238 132.204 87.1467 132.102C87.0953 132.031 86.9828 131.975 86.9057 131.981ZM61.7186 132.282C62.2197 132.282 62.6321 132.685 62.6321 133.186C62.6321 133.687 62.2197 134.089 61.7186 134.089C61.2239 134.089 60.805 133.687 60.805 133.186C60.805 132.685 61.2239 132.282 61.7186 132.282ZM92.6078 132.373C92.8841 132.373 93.1098 132.588 93.1098 132.865C93.1098 133.141 92.8841 133.367 92.6078 133.367C92.3316 133.367 92.116 133.141 92.116 132.865C92.116 132.588 92.3316 132.373 92.6078 132.373ZM86.1528 132.513C86.0949 132.545 86.0885 132.765 86.1528 132.855C86.2106 132.932 86.2953 132.869 86.2632 132.734C86.2436 132.631 86.3712 132.385 86.1528 132.513ZM77.2382 132.855C77.0832 132.865 76.9243 132.9 76.7765 132.865C76.796 133.295 77.231 133.103 77.3788 133.276C77.5651 133.508 77.0953 133.445 77.0375 133.638C76.9928 133.766 77.0652 133.844 77.168 133.889C77.2836 133.94 77.3924 133.855 77.3989 133.758C77.4374 133.456 77.3809 133.169 77.6699 132.995C77.5382 132.86 77.3932 132.844 77.2382 132.855ZM85.721 133.035C85.4961 132.875 85.2564 133.145 85.1087 133.377C85.3592 133.325 85.7234 133.398 85.6206 133.758C86.0575 133.373 86.6113 134.022 87.016 133.618C87.0607 133.573 87.0263 133.46 87.0263 133.377C86.4545 133.537 86.2221 133.395 85.721 133.035ZM84.1048 133.507C84.0148 133.764 83.6582 134.066 83.8639 134.22C84.0888 134.381 83.9502 133.707 84.3357 133.758C84.3357 133.675 84.3707 133.562 84.3254 133.517C84.2807 133.479 84.1176 133.481 84.1048 133.507ZM82.2777 133.658C82.1621 133.606 81.9079 133.591 81.9465 133.758C82.0172 134.092 81.8549 134.36 81.9064 134.662C81.81 134.218 82.3469 134.21 82.3983 133.889C82.4111 133.812 82.3484 133.683 82.2777 133.658ZM84.6971 134.049C84.53 133.895 84.6847 134.325 84.4662 134.28H84.8476C84.7577 134.216 84.742 134.094 84.6971 134.049ZM76.3849 134.421C76.1665 134.408 76.1464 134.792 75.883 134.792C75.8958 134.889 75.7557 135.122 75.9934 135.013C76.1669 134.942 76.2749 134.728 76.5255 134.792C76.5127 134.651 76.5712 134.434 76.3849 134.421ZM75.2405 134.923C75.2338 135.058 75.2898 135.217 75.11 135.294C75.2385 135.294 75.3979 135.338 75.4815 135.274C75.5714 135.21 75.4609 135.114 75.3711 135.043C75.3263 135.005 75.2855 134.961 75.2405 134.923ZM53.2559 135.123C53.7057 135.123 54.0791 135.487 54.0791 135.937C54.0791 136.386 53.7057 136.76 53.2559 136.76C52.8062 136.76 52.4428 136.386 52.4428 135.937C52.4428 135.487 52.8062 135.123 53.2559 135.123ZM74.3575 135.445C74.2675 135.483 74.19 135.54 74.1065 135.585C74.023 135.637 74.1332 135.799 74.2169 135.786C74.339 135.773 74.5976 135.994 74.5783 135.686C74.5783 135.576 74.5501 135.348 74.3575 135.445ZM79.5677 135.856C79.2979 135.676 79.0983 136.095 78.8349 136.198C78.9827 136.487 79.5846 136.716 79.6681 136.318C79.6938 136.202 79.6511 135.914 79.5677 135.856ZM74.3374 136.127C74.0804 136.095 74.3601 136.546 74.0965 136.72C74.0708 136.739 74.0863 136.795 74.0863 136.84C74.4268 136.789 74.633 136.166 74.3374 136.127ZM70.6432 136.188C70.5524 136.185 70.4589 136.211 70.3722 136.198C70.5007 136.41 70.7107 136.303 70.8841 136.328C70.8199 136.222 70.7339 136.19 70.6432 136.188ZM72.681 136.218C72.5975 136.256 72.5485 136.36 72.42 136.328C72.42 136.412 72.4354 136.502 72.4097 136.579C72.3519 136.772 72.1576 136.741 72.0484 136.69C71.8877 136.619 71.7725 136.356 71.6569 136.368C71.2778 136.42 71.1425 136.9 71.4059 137.202C71.4444 137.247 71.5697 137.206 71.6468 137.232C71.7496 137.264 71.8315 137.357 71.7673 137.473C71.7094 137.576 71.6098 137.65 71.5264 137.734C71.6934 137.663 71.7472 137.954 71.9078 137.864C72.1584 137.723 72.0998 137.435 72.209 137.262C72.376 136.999 72.7017 136.806 72.8816 136.549C73.0807 136.26 72.8159 136.154 72.681 136.218ZM70.5026 136.71C70.4191 136.71 70.2938 136.675 70.2617 136.72C70.2039 136.81 70.1975 137.007 70.2617 137.071C70.4095 137.226 70.5673 136.952 70.7536 136.971C70.7536 136.881 70.7819 136.765 70.7433 136.72C70.6981 136.675 70.5861 136.71 70.5026 136.71ZM73.193 136.84C73.2249 136.962 73.099 137.037 73.0926 137.101C73.0926 137.281 73.3026 137.209 73.444 137.222C73.444 137.132 73.4661 137.048 73.4337 136.971C73.4013 136.874 73.315 136.802 73.193 136.84ZM79.4672 137.101C79.3194 137.236 79.1484 137.359 79.2062 137.603C79.3347 137.571 79.4094 137.644 79.4672 137.734C79.5119 137.522 79.6599 137.313 79.4672 137.101ZM69.3078 137.182C69.2492 137.18 69.2046 137.214 69.2175 137.352C69.2688 137.237 69.5961 137.531 69.4483 137.242C69.4386 137.226 69.3664 137.183 69.3078 137.182ZM78.7039 137.473C78.7425 137.685 78.3188 137.609 78.473 137.673C78.7429 137.776 79.0196 137.849 79.2059 138.125C79.2765 138.234 79.1689 138.312 79.0854 138.376C79.0019 138.196 78.8388 138.259 78.7039 138.246C78.7039 138.419 78.7322 138.597 78.6936 138.758C78.6679 138.86 78.5178 138.873 78.4728 138.918C78.2672 139.137 78.5808 139.17 78.6836 139.119C78.9535 138.971 79.2803 138.933 79.4666 138.637C79.5437 138.515 79.6578 138.378 79.5871 138.256C79.3815 137.896 78.9417 137.8 78.7039 137.473ZM65.5028 139.019C65.355 139.205 65.1691 139.42 65.2719 139.651C65.2848 139.683 65.4598 139.683 65.4727 139.651C65.5498 139.465 65.5028 139.231 65.5028 139.019ZM52.8743 139.109C53.2469 139.109 53.5569 139.413 53.5569 139.792C53.5569 140.164 53.2469 140.464 52.8743 140.464C52.5016 140.464 52.1916 140.164 52.1916 139.792C52.1916 139.413 52.5016 139.109 52.8743 139.109ZM66.1453 139.149V139.4C66.2095 139.317 66.479 139.543 66.3762 139.28C66.3566 139.215 66.2288 139.188 66.1453 139.149ZM66.3963 139.671C66.2935 139.697 66.2023 139.818 66.2859 139.902C66.3306 139.947 66.4368 139.912 66.5268 139.912C66.5139 139.816 66.6661 139.6 66.3963 139.671ZM65.7739 140.193C65.7353 140.213 65.7286 140.369 65.7739 140.414C65.8186 140.459 65.9248 140.424 66.0148 140.424C65.9505 140.315 65.9538 140.084 65.7739 140.193ZM67.1592 141.066C67.0821 141.381 67.2961 141.662 67.2897 141.97C67.4182 141.97 67.5961 142.004 67.6411 141.94C67.8981 141.586 67.1576 141.611 67.2797 141.187C67.2864 141.161 67.2042 141.111 67.1592 141.066ZM68.3157 141.714C68.2193 141.753 68.1117 141.871 68.1952 141.935C68.2851 141.999 68.4382 141.965 68.5667 141.965C68.3546 142.004 68.56 141.618 68.3157 141.714Z" fill="#0270BB"/>
<path id="Vector_8" d="M73.0837 9.95941C71.2526 9.95941 69.6706 10.7481 69.6706 12.3286C69.6706 12.9967 70.0902 13.7035 70.7648 14.0954C71.5614 14.5644 72.0425 14.6603 72.9934 14.8081L73.9872 14.9687C74.5911 15.0522 75.1215 15.5273 75.1215 16.0027C75.1215 16.6323 74.4421 17.1672 73.7161 17.1672C71.9943 17.1672 70.8989 15.9943 70.4234 14.7479H69.6706L69.7709 17.639H70.3432L71.0258 16.9865C71.7454 17.4427 72.7846 17.6993 73.7162 17.6993C74.5385 17.6993 75.4236 17.5547 76.0853 17.1371C76.7792 16.6745 77.1695 16.0167 77.1695 15.31C77.1695 13.5111 75.5228 12.9883 73.666 12.6799L72.9927 12.5586C72.3309 12.4558 71.6676 12.163 71.6676 11.5848C71.6676 10.9937 72.349 10.5207 73.0429 10.5207C74.6427 10.5207 75.4285 11.3503 75.9039 12.6289H76.6267L76.5866 10.0489H76.0345L75.5125 10.5408C74.834 10.1615 73.9061 9.95941 73.0837 9.95941ZM55.9779 10.1401V10.6922C56.1321 10.6922 56.7504 10.6846 56.9817 10.7424C57.1616 10.8067 57.1825 10.9123 57.1825 11.0536V15.2297C57.1825 16.0393 57.4062 16.6954 58.1964 17.1773C58.8453 17.5756 60.3403 17.6993 61.1177 17.6993C61.728 17.6993 62.5327 17.6358 63.0853 17.3981C63.747 17.1347 64.2514 16.5966 64.4505 15.9927C64.5726 15.6457 64.6011 15.3486 64.6011 14.9888V12.0675C64.6397 11.2388 64.7882 10.7244 65.9062 10.6922V10.1401H62.5432V10.6922C62.7423 10.6987 62.9692 10.6918 63.1555 10.7625C63.843 10.9167 63.8582 11.4897 63.8582 11.9972V14.6474C63.8582 15.2192 63.8644 15.7818 63.4467 16.2637C63.0612 16.7455 62.3589 16.9363 61.71 16.9363C61.3116 16.9363 60.992 16.8804 60.6258 16.7455C60.2017 16.5849 60.0062 16.4391 59.8327 16.0729C59.6528 15.7003 59.662 15.1261 59.662 14.7277V11.3246C59.662 11.2025 59.6405 10.9556 59.7624 10.8528C60.0323 10.6215 60.5234 10.7307 60.8767 10.6922V10.14L55.9779 10.1401ZM66.8399 15.0591C66.0689 15.0591 65.4144 15.6646 65.4144 16.3842C65.4144 17.1037 66.0689 17.6992 66.8399 17.6992C67.6173 17.6992 68.2754 17.1037 68.2754 16.3842C68.2754 15.6646 67.6173 15.0591 66.8399 15.0591ZM78.8963 15.0591C78.1189 15.0591 77.4608 15.6646 77.4608 16.3842C77.4608 17.1037 78.1189 17.6992 78.8963 17.6992C79.6673 17.6992 80.3218 17.1037 80.3218 16.3842C80.3218 15.6646 79.6673 15.0591 78.8963 15.0591ZM30.62 19.6367C28.789 19.6367 27.2069 20.4318 27.2069 22.0058C27.2069 22.674 27.6329 23.3872 28.3011 23.7727C29.0978 24.2481 29.5724 24.3376 30.5297 24.4854L31.5135 24.646C32.1174 24.7231 32.6579 25.2046 32.6579 25.68C32.6579 26.316 31.9785 26.8445 31.2525 26.8445C29.5242 26.8445 28.4453 25.6716 27.9699 24.4252H27.2069L27.3073 27.3163H27.8795L28.5521 26.6638C29.2781 27.1264 30.3273 27.3765 31.2525 27.3765C32.0813 27.3765 32.9663 27.232 33.6217 26.8144C34.3155 26.3518 34.7059 25.694 34.7059 24.9873C34.7059 23.1884 33.0627 22.6591 31.2124 22.3572L30.518 22.2358C29.8626 22.1331 29.1929 21.8403 29.1929 21.2621C29.1929 20.671 29.8779 20.198 30.5782 20.198C32.178 20.198 32.9574 21.0276 33.4392 22.3062H34.152L34.1219 19.7262H33.5697L33.0475 20.2186C32.3665 19.8393 31.4424 19.6367 30.62 19.6367ZM52.2335 19.6668C50.865 19.6668 49.764 20.378 49.764 21.6244C49.764 22.1576 49.9503 22.6138 50.2458 23.0699C49.7062 23.2948 49.1295 23.5032 48.6798 23.863C48.1979 24.2421 47.8265 24.807 47.8265 25.3788C47.8265 25.8928 48.126 26.4939 48.5693 26.8344C49.1026 27.2328 49.8093 27.3765 50.4968 27.3765C51.4155 27.3765 52.3041 27.1822 53.0366 26.6939C53.5056 27.0601 54.2577 27.3464 54.8937 27.3464C56.2494 27.3464 56.8115 26.606 57.0621 25.5395L56.51 25.429C56.4393 25.8595 56.1848 26.3225 55.6065 26.3225C55.1504 26.3225 54.7055 25.8659 54.442 25.5897C54.7312 25.3005 54.9428 24.9938 55.1548 24.6661C55.5981 23.9658 55.7503 23.6012 56.7911 23.5819V23.0498H53.5787V23.5518C54.0156 23.5518 54.6428 23.5827 54.6428 24.0838C54.6428 24.4629 54.3047 24.8789 54.0606 25.168C53.4695 24.442 52.8844 23.704 52.364 22.9394C53.2956 22.6375 54.442 22.1348 54.442 21.1325C54.442 20.6763 54.1835 20.2752 53.7594 20.0182C53.2776 19.7291 52.7989 19.6668 52.2335 19.6668ZM13.524 19.8174V20.3595H13.8352C14.06 20.3723 14.1753 20.3527 14.3873 20.4298C14.6379 20.4876 14.6383 20.7253 14.6383 20.9116V25.9912C14.6383 26.1454 14.6367 26.3088 14.5981 26.463C14.5788 26.4887 14.5636 26.5413 14.5379 26.5734C14.5186 26.5991 14.4696 26.6244 14.4375 26.6437C14.3154 26.6823 14.2082 26.6839 14.0861 26.6839H13.5139V27.226H18.4028V26.6839L17.787 26.6433C17.1127 26.6237 17.1147 26.5065 17.1147 25.9602V23.8119H17.2352C18.0255 23.8119 18.5141 24.052 18.7711 24.5146C18.8996 24.7523 18.9526 24.8929 18.9719 25.137H19.5742V21.7138H18.9719C18.7278 22.716 18.3804 23.1842 17.1147 23.1392V21.0311C17.1147 20.864 17.0946 20.6412 17.2553 20.5191C17.538 20.3464 17.9152 20.3793 18.2493 20.3793C19.9712 20.3793 20.6518 21.1427 21.0501 22.5176H21.6424L21.552 19.8172L13.524 19.8174ZM21.9666 19.8174V20.3595H22.328C22.5401 20.3723 22.6408 20.3555 22.84 20.4197C23.0071 20.4583 22.993 20.5386 23.0508 20.6607C23.0765 20.7763 23.0709 20.8863 23.0709 21.002V25.9812C23.0709 26.3795 23.1187 26.6325 22.579 26.6839H21.9667V27.226H26.6849V26.6839H26.3937C26.2036 26.6705 26.1383 26.6751 25.9584 26.6433C25.9003 26.6366 25.8417 26.6423 25.7775 26.6227C25.559 26.5523 25.5565 26.3215 25.5565 26.1612V21.0314C25.5565 20.9157 25.5444 20.7929 25.5766 20.6901C25.6023 20.6258 25.6191 20.5507 25.6769 20.4993C25.8633 20.3258 26.0552 20.3588 26.2993 20.3588H26.6808V19.8167L21.9666 19.8174ZM34.5854 19.8174V20.3595C34.9067 20.3788 35.1203 20.3491 35.4287 20.4197C35.7242 20.4904 35.6796 20.7863 35.6796 20.9919V25.931C35.6668 26.1109 35.6322 26.2767 35.6194 26.4631C35.6065 26.6365 35.3985 26.6839 35.2379 26.6839H34.5854V27.226H39.2434V26.6839C39.102 26.6839 38.7069 26.6566 38.5206 26.6438C38.1544 26.6181 38.1592 26.2848 38.1592 26.0214V24.0036H41.0604V25.8407C41.0604 26.0913 41.1411 26.5851 40.7492 26.6237C40.5243 26.6558 40.112 26.6839 39.9963 26.6839V27.226H44.6342V26.6839C44.3129 26.6968 44.1258 26.6558 43.811 26.6237C43.6568 26.5851 43.5729 26.5241 43.56 26.3828C43.5472 26.1836 43.55 25.9896 43.55 25.7905V21.0623C43.55 20.831 43.4841 20.4704 43.8311 20.3997L44.6041 20.3596V19.8175H39.9963V20.3596C40.1826 20.3596 40.7866 20.3359 40.96 20.4901C41.0243 20.5415 41.0311 20.6065 41.0504 20.6708C41.0761 20.7928 41.0604 20.9273 41.0604 21.0623V23.3411H38.1592V21.002C38.1592 20.8157 38.1504 20.6242 38.2596 20.47C38.4781 20.335 39.07 20.3595 39.2434 20.3595V19.8174L34.5854 19.8174ZM58.9692 19.8174V20.3595H59.0696C59.3652 20.3788 59.5708 20.3643 59.7121 20.6406C59.802 20.7755 59.855 20.9345 59.9129 21.0823L62.292 27.3765H63.5369L65.1129 23.1L66.6187 27.3765H67.8334L69.9215 21.5942C70.1078 21.0995 70.3194 20.5602 70.9555 20.3996C71.0133 20.3868 71.0719 20.3723 71.1362 20.3595V19.8174H68.1948V20.3595C68.6189 20.3595 69.2589 20.4827 69.2589 20.9517C69.2589 21.2922 69.1372 21.6006 69.028 21.9154L68.0643 24.6661L66.7794 20.9317C66.7408 20.7968 66.6557 20.6422 66.7393 20.5201C66.7778 20.488 66.8248 20.449 66.8698 20.4297C67.0368 20.3526 67.232 20.3723 67.4119 20.3595V19.8174H63.5369V20.3595L63.6757 20.379C63.8042 20.3983 63.9937 20.3967 64.0773 20.4995C64.2443 20.7051 64.2648 20.793 64.3483 21.0114L64.7499 22.0755L63.766 24.7358L62.3506 20.9612L62.2602 20.7203C62.2541 20.656 62.2227 20.5709 62.2803 20.5195C62.325 20.4489 62.3373 20.4577 62.4208 20.4191C62.6007 20.3677 62.7894 20.3717 62.9629 20.3589V19.8168L58.9692 19.8174ZM71.8892 19.8174V20.3595H72.2506C72.4626 20.3723 72.5634 20.3555 72.7626 20.4197C72.9296 20.4583 72.9156 20.5386 72.9734 20.6607C72.9991 20.7763 72.9935 20.8863 72.9935 21.002V25.9812C72.9935 26.3795 73.0413 26.6325 72.5016 26.6839H71.8892V27.226H76.5974V26.6839H76.3163C76.1261 26.6705 76.0542 26.6751 75.8846 26.6433C75.828 26.6366 75.7663 26.6423 75.7047 26.6227C75.4837 26.5523 75.4836 26.3215 75.4836 26.1612V21.0314C75.4836 20.9157 75.4718 20.7929 75.5037 20.6901C75.5294 20.6258 75.5361 20.5507 75.5941 20.4993C75.7804 20.3258 75.9824 20.3588 76.2265 20.3588H76.598V19.8167L71.8892 19.8174ZM77.0089 19.8174V20.3595H77.1897C78.1791 20.3788 78.1032 20.402 78.1032 21.263V26.1318C78.1032 26.3245 78.1012 26.6245 77.8121 26.6437C77.5037 26.663 77.3238 26.7032 77.009 26.6839V27.226H84.3271L84.4676 24.4553H83.8653C83.5247 25.8495 82.8758 26.6839 81.6166 26.6839C81.3596 26.6839 81.3716 26.6694 81.1146 26.6437C80.5801 26.598 80.6161 26.3657 80.5904 25.9802V20.9106C80.5904 20.493 80.6191 20.3585 81.1526 20.3585H81.6545V19.8164L77.0089 19.8174ZM84.6683 19.8174V20.3595H84.9494C85.1871 20.3595 85.4273 20.3491 85.6521 20.4197C85.8449 20.484 85.893 20.5868 85.893 20.741V26.0617C85.893 26.1838 85.9079 26.3139 85.8627 26.4231C85.8498 26.4745 85.8073 26.5416 85.7623 26.5737C85.7238 26.6122 85.6668 26.6311 85.6218 26.6439C85.3134 26.6825 84.9893 26.6841 84.6681 26.6841V27.2262H88.8743C89.6646 27.2262 91.0531 27.2222 91.7856 26.9652C92.6336 26.6761 93.3705 26.0649 93.7431 25.3389C94.0515 24.7542 94.1748 24.0841 94.1748 23.4416C94.1748 22.465 93.8852 21.5804 93.1207 20.8415C92.7802 20.5267 92.3011 20.2786 91.8257 20.0987C91.2732 19.8867 90.3854 19.8541 89.7879 19.8477L88.6836 19.8176L84.6683 19.8174ZM93.9945 19.8174V20.3595H94.1652C95.161 20.3788 95.0887 20.402 95.0887 21.263V26.1318C95.0887 26.3245 95.0931 26.6245 94.7976 26.6437C94.4892 26.663 94.3093 26.7032 93.9945 26.6839V27.226H101.313L101.453 24.4553H100.841C100.5 25.8495 99.8614 26.6839 98.6021 26.6839C98.3451 26.6839 98.3471 26.6694 98.0901 26.6437C97.5556 26.598 97.5916 26.3657 97.571 25.9802V20.9106C97.571 20.493 97.6162 20.3585 98.1432 20.3585H98.6452V19.8164L93.9945 19.8174ZM101.935 19.8174V20.3595H102.306C102.518 20.3723 102.619 20.3555 102.818 20.4197C102.985 20.4583 102.971 20.5386 103.029 20.6607C103.055 20.7763 103.049 20.8863 103.049 21.002V25.9812C103.049 26.3795 103.097 26.6325 102.557 26.6839H101.935V27.226H106.653V26.6839H106.372C106.187 26.6705 106.115 26.6751 105.94 26.6433C105.884 26.6366 105.827 26.6423 105.761 26.6227C105.545 26.5523 105.54 26.3215 105.54 26.1612V21.0314C105.54 20.9157 105.528 20.7929 105.56 20.6901C105.585 20.6258 105.592 20.5507 105.65 20.4993C105.836 20.3258 106.028 20.3588 106.272 20.3588H106.654V19.8167L101.935 19.8174ZM107.085 19.8174V20.3595H107.386C107.611 20.3723 107.736 20.3527 107.948 20.4298C108.193 20.4876 108.189 20.7253 108.189 20.9116V25.9912C108.189 26.1454 108.191 26.3088 108.159 26.463C108.133 26.4887 108.118 26.5413 108.099 26.5734C108.073 26.5991 108.027 26.6244 107.988 26.6437C107.873 26.6823 107.763 26.6839 107.647 26.6839H107.075V27.226H111.964V26.6839L111.351 26.6437C110.678 26.6237 110.678 26.5065 110.678 25.9601V23.8118H110.788C111.579 23.8118 112.087 24.052 112.344 24.5145C112.473 24.7523 112.509 24.8928 112.535 25.1369H113.137V21.7137H112.535C112.285 22.716 111.937 23.1842 110.678 23.1392V21.031C110.678 20.864 110.651 20.6411 110.818 20.5191C111.106 20.3464 111.487 20.3793 111.816 20.3793C113.537 20.3793 114.218 21.1426 114.616 22.5175H115.209L115.128 19.8171L107.085 19.8174ZM115.448 19.8174V20.3595C115.775 20.3595 115.99 20.3555 116.311 20.4197C116.439 20.439 116.49 20.4876 116.542 20.5904C116.587 20.6546 116.572 20.7406 116.572 20.8112V26.0513C116.572 26.1734 116.587 26.297 116.542 26.4127C116.433 26.7917 115.762 26.6516 115.448 26.6837V27.2258H123.468L123.599 24.5053L123.007 24.4652C122.512 25.9557 122.109 26.6837 120.246 26.6837C120.034 26.6837 119.815 26.6628 119.603 26.6436C119.025 26.5922 119.051 26.3705 119.051 25.9208V23.6721C120.227 23.6464 120.884 24.2588 120.929 25.2482H121.571L121.521 21.6744H120.918C120.783 22.6317 120.214 23.2136 119.051 23.13V21.1926C119.051 21.0191 119.038 20.8312 119.121 20.6706C119.141 20.5806 119.229 20.5212 119.312 20.4698C119.569 20.367 119.863 20.3494 120.145 20.3494C122.034 20.3494 122.368 20.9906 122.876 22.4876H123.468L123.388 19.8173L115.448 19.8174ZM52.2329 20.1687C52.8497 20.1687 53.1967 20.6542 53.1967 21.1425C53.1967 21.7593 52.8654 22.1833 52.2229 22.4274C52.1782 22.466 52.1101 22.4784 52.0523 22.4977C51.8017 22.1829 51.3596 21.4184 51.3596 21.0521C51.3596 20.5703 51.6483 20.1687 52.2329 20.1687ZM89.125 20.3494C90.7441 20.3494 91.1003 21.0337 91.3637 22.3572C91.4344 22.7555 91.454 23.1534 91.454 23.5518C91.454 23.8023 91.4458 24.0605 91.414 24.3046C91.1891 25.8016 91.0088 26.6838 89.0749 26.6838C88.9015 26.6838 88.7176 26.6617 88.4927 26.5332C88.3385 26.3598 88.3722 26.0763 88.3722 25.8707V20.9617C88.3722 20.8332 88.3671 20.61 88.4826 20.52C88.6946 20.353 88.9516 20.3494 89.125 20.3494ZM50.4962 23.5317C50.6118 23.718 50.7283 23.9039 50.8375 24.0838C51.2873 24.8034 51.568 25.1688 52.1526 25.8305C52.294 25.9912 52.453 26.1618 52.5943 26.3224C52.4401 26.4766 52.0061 26.5734 51.7812 26.5734C51.1773 26.5734 50.7392 26.3385 50.3858 25.9209C50.071 25.5418 49.8136 25.021 49.8136 24.5456C49.8136 24.0959 50.0914 23.7759 50.4962 23.5317ZM43.9224 29.1526C42.0913 29.1526 40.4991 29.9413 40.4991 31.5218C40.4991 32.1835 40.9352 32.9031 41.6034 33.2886C42.4001 33.764 42.8711 33.86 43.8219 34.0013L44.8158 34.1619C45.4197 34.239 45.9602 34.7269 45.9602 35.1959C45.9602 35.832 45.2772 36.3604 44.5448 36.3604C42.8229 36.3604 41.7375 35.1875 41.2621 33.9411H40.4991L40.6096 36.8322H41.1718L41.8544 36.1697C42.574 36.6322 43.6196 36.8924 44.5448 36.8924C45.3671 36.8924 46.2686 36.7479 46.9239 36.3302C47.6178 35.8676 47.9981 35.2099 47.9981 34.5032C47.9981 32.7107 46.3613 32.1814 44.5046 31.873L43.822 31.7526C43.1602 31.6433 42.4969 31.3607 42.4969 30.7888C42.4969 30.1913 43.1819 29.7147 43.8822 29.7147C45.4755 29.7147 46.2578 30.5443 46.7332 31.8229H47.456L47.4159 29.2429H46.8638L46.3518 29.7348C45.6702 29.3565 44.7447 29.1526 43.9224 29.1526ZM84.6997 29.1526C83.5303 29.1526 82.0988 29.4032 81.2764 30.1163C80.4027 30.8809 79.9915 32.0213 79.9915 33.0878C79.9915 34.0708 80.32 35.1654 81.1359 35.8785C82.0033 36.6624 83.3629 36.8624 84.6093 36.8624C86.7809 36.8624 87.9715 36.0023 88.434 34.1519L87.7313 34.0114C87.4808 35.2128 86.601 36.2299 85.0912 36.2299C84.5258 36.2299 84.0495 36.1059 83.6255 35.7782C83.1886 35.4312 83.0412 35.0919 82.9128 34.6036C82.7714 34.0768 82.712 33.5708 82.712 33.0376C82.712 32.6328 82.7253 32.1481 82.8023 31.7626C82.9373 31.178 82.9935 30.8054 83.4047 30.3171C83.8159 29.8416 84.3134 29.6746 85.0008 29.6746C86.5299 29.6746 87.3169 31.0463 87.651 32.1642L88.2534 32.114L88.143 29.1726H87.6511L86.9785 29.7248C86.9338 29.7055 86.8765 29.6765 86.838 29.6444C86.1184 29.2461 85.5349 29.1526 84.6997 29.1526ZM48.1889 29.3032V29.8453C48.523 29.8453 48.731 29.8377 49.0523 29.8955C49.1808 29.9148 49.2282 29.9634 49.2731 30.0662C49.3245 30.1304 49.3132 30.2264 49.3132 30.2971V35.5371C49.3132 35.6592 49.3245 35.7829 49.2731 35.8985C49.1703 36.2776 48.5102 36.1338 48.1889 36.1595V36.7116H56.1999L56.3404 33.9911L55.7481 33.951C55.2534 35.4351 54.8506 36.1595 52.9874 36.1595C52.7754 36.1595 52.557 36.1386 52.3449 36.1194C51.7667 36.068 51.7928 35.8563 51.7928 35.4066V33.158C52.975 33.1258 53.6251 33.741 53.67 34.724H54.3025L54.2521 31.1603H53.6498C53.5213 32.1176 52.9619 32.6994 51.7926 32.6159V30.6784C51.7926 30.5049 51.7859 30.3234 51.8629 30.1564C51.8886 30.0665 51.9701 29.997 52.0536 29.9456C52.3106 29.8428 52.6041 29.8352 52.8868 29.8352C54.7757 29.8352 55.1098 30.4765 55.6174 31.9734H56.1996L56.1193 29.3031L48.1889 29.3032ZM56.9626 29.3032V29.8453H57.2035C57.4798 29.8581 57.7773 29.8124 57.9765 29.9858C58.1178 30.1079 58.0669 30.6191 58.0669 30.799V35.5473C58.0473 35.9649 58.0499 36.1468 57.4846 36.1596C57.2726 36.1661 57.1746 36.1596 56.9626 36.1596V36.7118H61.5905V36.1596H61.2993C61.1002 36.1532 61.1435 36.1652 60.938 36.1395C60.6938 36.1267 60.6243 36.054 60.5665 35.8484C60.5536 35.7392 60.5562 35.6228 60.5562 35.5071V33.148H60.6767C60.8502 33.148 60.7742 33.1452 60.9477 33.1581C62.0721 33.2159 62.1219 33.8331 62.1925 34.694L62.2429 35.3164C62.2815 35.7147 62.367 36.105 62.6946 36.4006C63.0609 36.7154 63.7704 36.8623 64.2908 36.8623C65.2481 36.8623 66.0922 36.5178 66.2785 35.6376C66.3427 35.4449 66.3588 35.2409 66.3588 35.0353H65.7666C65.728 35.363 65.6778 36.034 65.0739 35.8284C65.0291 35.7898 64.9892 35.7464 64.9635 35.7079C64.8478 35.5023 64.9008 35.4208 64.843 35.1959L64.735 34.5036C64.5038 33.6365 64.1234 33.1724 63.0183 33.0182V32.9981C64.2969 32.9146 65.5581 32.423 65.5581 31.1509C65.5581 30.6048 65.2152 30.031 64.6948 29.7355C64.0844 29.395 63.4512 29.3303 62.7574 29.3239L61.623 29.3038L56.9626 29.3032ZM65.3852 29.3032V29.8453C65.5394 29.8581 65.7029 29.8626 65.8571 29.8754C66.3389 29.9589 66.453 30.2914 66.62 30.6384L69.4911 36.8622H70.8563L73.4776 31.2505C73.786 30.6145 74.147 29.8965 75.0336 29.8451V29.303H71.7007V29.8451C72.1569 29.8258 72.8652 29.9965 72.8652 30.4976C72.8652 30.6325 72.8298 30.7341 72.7849 30.869L71.063 34.6735L69.1356 30.4275C69.0714 30.2926 69.0003 30.1637 69.0453 30.0159C69.2123 29.7911 69.762 29.8902 70.019 29.8453V29.3032L65.3852 29.3032ZM75.3539 29.3032V29.8453H75.7254C75.9374 29.8581 76.0217 29.8377 76.2273 29.8955C76.3879 29.9405 76.3803 30.018 76.4382 30.1465C76.4577 30.2557 76.4582 30.3685 76.4582 30.4778V35.467C76.4582 35.8653 76.5124 36.1083 75.9663 36.1597H75.354V36.7118H80.0621V36.1597H79.7811C79.5947 36.1533 79.5293 36.1653 79.3494 36.1396C79.2916 36.1267 79.2265 36.1352 79.1687 36.1095C78.9425 36.039 78.9425 35.7985 78.9425 35.6381V30.5184C78.9425 30.4028 78.924 30.2799 78.9626 30.1771C78.9821 30.1193 78.995 30.0378 79.0529 29.9864C79.2457 29.8129 79.4348 29.8458 79.6854 29.8458H80.0568V29.3037H75.3487L75.3539 29.3032ZM88.7154 29.3032V29.8453C89.0431 29.8453 89.2639 29.8377 89.5787 29.8955C89.7072 29.9148 89.7646 29.9634 89.8096 30.0662C89.8543 30.1304 89.8399 30.2264 89.8399 30.2971V35.5371C89.8399 35.6592 89.8549 35.7829 89.8096 35.8985C89.7068 36.2776 89.0366 36.1338 88.7154 36.1595V36.7116H96.7361L96.8666 33.9911L96.2743 33.951C95.7796 35.4351 95.3769 36.1595 93.5137 36.1595C93.3017 36.1595 93.0832 36.1386 92.8712 36.1194C92.2994 36.068 92.3191 35.8563 92.3191 35.4066V33.158C93.5012 33.1258 94.1513 33.741 94.1963 34.724H94.8388L94.7884 31.1603H94.1861C94.0576 32.1176 93.4882 32.6994 92.3189 32.6159V30.6784C92.3189 30.5049 92.3055 30.3234 92.3891 30.1564C92.4148 30.0665 92.5064 29.997 92.5899 29.9456C92.8469 29.8428 93.1404 29.8352 93.4231 29.8352C95.312 29.8352 95.6361 30.4765 96.1436 31.9734H96.7359L96.6556 29.3031L88.7154 29.3032ZM61.2636 29.8254C62.3366 29.8254 62.92 30.1246 62.92 31.1204C62.92 32.2254 62.2595 32.5604 61.103 32.5861C60.7818 32.5989 60.8657 32.6126 60.5509 32.6062V30.478C60.5509 30.2724 60.557 30.0114 60.7818 29.8957C61.0516 29.8122 60.9809 29.8254 61.2636 29.8254ZM12.6861 41.5504V94.8657C12.6861 125.595 37.6009 150.509 68.3298 150.509C99.0598 150.509 123.974 125.595 123.974 94.8657V41.5504H12.6861ZM14.6738 43.538H121.978V94.8658C121.978 124.49 97.962 148.515 68.3284 148.515C38.6973 148.515 14.6738 124.493 14.6738 94.8658V43.538ZM15.6275 118.579L15.3263 118.73L15.4066 118.901C15.4773 119.036 15.5616 119.175 15.5873 119.322C15.613 119.451 15.5605 119.508 15.4769 119.553L12.5159 121.08C12.4516 121.112 12.3757 121.16 12.3051 121.16C12.2729 121.173 12.2368 121.159 12.2047 121.14C12.1725 121.134 12.1336 121.109 12.1143 121.09C11.9987 120.923 11.9095 120.724 11.8132 120.537L11.502 120.698L12.7568 123.138C12.9945 123.6 13.3005 124.18 13.6603 124.533C14.0715 124.944 14.632 125.193 15.146 125.205C15.5636 125.218 15.9708 125.101 16.3306 124.914C16.8702 124.638 17.2786 124.214 17.4649 123.559C17.5356 123.27 17.53 122.917 17.485 122.595C17.44 122.21 17.3071 121.905 17.1337 121.551L16.8225 120.909L15.6275 118.579ZM121.508 118.61C121.325 118.629 121.133 118.691 120.976 118.8C120.61 119.07 120.405 119.42 120.193 119.824L119.922 120.326L118.587 123.057L118.888 123.208L118.998 122.987C119.082 122.826 119.145 122.639 119.299 122.575C119.409 122.524 119.678 122.701 119.781 122.746L122.441 124.051C122.673 124.179 122.773 124.239 122.612 124.573C122.561 124.695 122.496 124.822 122.431 124.944L122.743 125.095L124.068 122.384L123.767 122.234L123.686 122.415C123.622 122.53 123.563 122.647 123.485 122.756C123.408 122.904 123.359 122.926 123.224 122.906C123.16 122.881 123.088 122.848 123.024 122.816L121.709 122.164L121.809 121.943C121.86 121.84 121.912 121.738 121.97 121.642C122.329 120.999 122.693 121.131 123.194 121.33L123.546 121.471C123.783 121.561 124.025 121.62 124.289 121.511C124.571 121.382 124.787 121.15 124.941 120.848C125.211 120.289 125.264 119.696 124.821 119.343C124.731 119.253 124.625 119.193 124.509 119.142L124.339 119.483C124.512 119.599 124.959 119.87 124.67 120.166C124.631 120.179 124.602 120.186 124.57 120.186C124.422 120.199 124.269 120.171 124.128 120.146L123.706 120.075C123.147 119.973 122.716 120.167 122.331 120.688V120.678C122.646 119.907 122.733 119.037 122.02 118.69C121.869 118.613 121.691 118.59 121.508 118.61ZM120.665 119.962C120.857 119.851 121.078 119.847 121.358 119.982C121.981 120.29 121.973 120.77 121.659 121.457C121.569 121.644 121.494 121.829 121.398 122.009L120.21 121.429C120.095 121.377 119.939 121.288 119.939 121.127C119.972 120.948 120.077 120.772 120.16 120.605C120.314 120.294 120.473 120.072 120.665 119.962ZM16.2494 120.763C16.41 120.84 16.5329 121.072 16.5907 121.175C17.0726 122.107 16.861 122.666 16.1992 123.193C16.0001 123.347 15.7953 123.475 15.5768 123.584C15.4355 123.655 15.2929 123.72 15.1452 123.765C14.2457 124.067 13.6189 124.066 13.0471 122.942C12.9893 122.839 12.9102 122.667 12.9166 122.5C12.968 122.359 13.1387 122.293 13.2479 122.229L15.9784 120.834C16.0491 120.801 16.1659 120.725 16.2494 120.763ZM18.1266 123.494L17.8456 123.675C17.9612 123.854 18.0897 124.044 18.1668 124.237C18.2053 124.32 18.1852 124.363 18.1467 124.428C18.1338 124.473 18.0748 124.492 18.0363 124.518L15.2756 126.275C15.2114 126.313 15.1519 126.362 15.0748 126.375C14.8371 126.439 14.6412 125.953 14.5126 125.793L14.2215 125.974L17.0324 130.391L18.5081 129.547L18.3274 129.206C17.3701 129.437 16.7541 129.32 16.0988 128.293C16.0281 128.177 15.9623 128.053 15.898 127.931C15.7246 127.597 15.8511 127.537 16.0888 127.389L17.2733 126.636C17.7038 127.272 17.5938 127.839 17.0926 128.192L17.3235 128.543L19.1807 127.319L18.9799 126.988C18.4274 127.238 17.9142 127.12 17.5545 126.445L18.5784 125.793C18.6684 125.735 18.7639 125.669 18.8796 125.662C18.9374 125.643 18.9924 125.667 19.0502 125.693C19.1916 125.802 19.3052 125.96 19.4016 126.114C20.0633 127.155 19.9316 127.69 19.3213 128.473L19.5321 128.805L20.907 127.859L18.1266 123.494ZM119.756 123.775C119.435 123.743 119.1 123.773 118.762 123.875C118.036 124.113 117.496 124.591 117.066 125.291C116.68 125.908 116.48 126.697 116.564 127.359C116.66 128.091 117.049 128.668 117.608 129.015C118.122 129.33 118.819 129.402 119.455 129.216C120.13 129.017 120.727 128.526 121.132 127.871C121.562 127.177 121.764 126.521 121.674 125.763C121.603 125.062 121.177 124.394 120.65 124.066C120.377 123.899 120.078 123.807 119.756 123.775ZM118.612 124.859C119.074 124.925 119.539 125.175 119.857 125.371C120.056 125.5 120.272 125.642 120.439 125.803C120.882 126.22 121.449 126.766 120.961 127.549C120.665 128.025 120.265 128.261 119.776 128.222C119.333 128.184 118.807 127.965 118.441 127.74C117.767 127.323 116.673 126.533 117.367 125.421C117.688 124.904 118.15 124.793 118.612 124.859ZM115.66 127.64L113.904 130.059L114.175 130.26L114.315 130.059C114.399 129.95 114.477 129.822 114.586 129.738C114.67 129.667 114.714 129.715 114.797 129.728C114.861 129.76 114.92 129.79 114.978 129.828L117.498 131.665C117.697 131.813 117.844 131.885 117.658 132.187L117.367 132.579L117.638 132.779L119.405 130.36L119.134 130.159L119.023 130.31C118.946 130.406 118.876 130.518 118.793 130.601C118.76 130.627 118.751 130.656 118.712 130.681C118.59 130.771 118.475 130.685 118.391 130.621L115.801 128.744C115.743 128.699 115.679 128.655 115.64 128.603C115.615 128.565 115.57 128.534 115.57 128.483C115.557 128.316 115.705 128.166 115.801 128.031L115.941 127.83L115.66 127.64ZM20.9953 128.011L20.7242 128.222C20.8527 128.396 21.0093 128.572 21.1057 128.764C21.1185 128.797 21.1221 128.833 21.1157 128.865C21.1221 128.903 21.0949 128.929 21.0756 128.955L18.3953 131.043C18.2218 131.172 18.0989 131.27 17.8933 131.013C17.7905 130.891 17.705 130.76 17.6022 130.631L17.3312 130.852L19.1783 133.231L19.4494 133.02L19.2988 132.83C19.2345 132.74 19.153 132.655 19.108 132.559C19.0888 132.52 19.0671 132.497 19.0478 132.458C19.035 132.42 19.0314 132.376 19.0378 132.338C19.0314 132.254 19.1506 132.182 19.2084 132.137L20.2324 131.344L20.7042 131.976C21.3467 132.831 22.3847 133.851 23.2842 133.151C23.6182 132.894 23.7773 132.579 23.7259 132.097C23.668 131.596 23.4255 131.21 23.1235 130.792C23.0657 130.702 23.0071 130.614 22.9428 130.531L21.0005 128.007L20.9953 128.011ZM22.0594 130.059C22.2007 130.098 22.371 130.329 22.4609 130.451C22.9877 131.125 23.009 131.523 22.4308 131.967C21.7562 132.493 21.3326 132.22 20.7543 131.475C20.6837 131.385 20.6242 131.294 20.5536 131.204L20.4933 131.133L21.7281 130.19C21.8244 130.113 21.9116 130.021 22.0594 130.059ZM114.072 130.943C113.891 130.917 113.69 130.942 113.51 131.013C113.093 131.18 112.798 131.455 112.496 131.796L112.125 132.228L110.157 134.547L110.408 134.767L110.569 134.577C110.685 134.442 110.793 134.281 110.96 134.255C111.076 134.236 111.309 134.466 111.392 134.537L113.651 136.454C113.837 136.64 113.922 136.713 113.691 136.996L113.42 137.327L113.671 137.538L115.638 135.239L115.377 135.028L115.247 135.169C115.157 135.265 115.072 135.37 114.976 135.46C114.867 135.576 114.807 135.592 114.685 135.54C114.627 135.496 114.565 135.445 114.514 135.4L113.39 134.446L113.55 134.255C113.621 134.165 113.704 134.078 113.781 133.994C114.289 133.468 114.599 133.69 115.036 134.005L115.347 134.226C115.553 134.367 115.777 134.485 116.06 134.446C116.368 134.389 116.635 134.222 116.853 133.965C117.258 133.489 117.445 132.929 117.104 132.479C117.04 132.37 116.949 132.281 116.853 132.198L116.602 132.489C116.743 132.637 117.11 133.01 116.763 133.222C116.718 133.235 116.684 133.238 116.652 133.232C116.511 133.206 116.369 133.146 116.241 133.081L115.849 132.911C115.335 132.673 114.868 132.767 114.374 133.172L114.363 133.161C114.858 132.493 115.154 131.668 114.544 131.154C114.415 131.045 114.254 130.968 114.072 130.943ZM112.928 132.057C113.142 131.998 113.353 132.055 113.591 132.258C114.117 132.701 113.996 133.159 113.52 133.744C113.392 133.911 113.274 134.071 113.139 134.225L112.125 133.362C112.029 133.279 111.899 133.165 111.944 133.011C112.015 132.844 112.153 132.7 112.275 132.559C112.5 132.292 112.714 132.116 112.928 132.057ZM25.2118 133.101L21.5176 134.075C21.0743 134.19 20.5016 134.338 20.0519 133.914L19.8009 134.135L21.2766 135.781L21.5276 135.56C21.2835 135.297 21.0706 134.931 21.3469 134.687C21.5139 134.539 21.7701 134.51 21.9693 134.446L23.2743 135.902L22.9531 136.635C22.9145 136.731 22.8872 136.845 22.7523 136.825C22.6174 136.813 22.4371 136.577 22.3407 136.474L22.0898 136.695L23.7963 138.602V138.613L23.8867 138.703L26.0149 140.66L26.2458 140.409L26.1052 140.279C26.0153 140.189 25.8976 140.101 25.8141 139.998C25.7049 139.882 25.6997 139.819 25.7639 139.697C25.8024 139.639 25.853 139.587 25.9044 139.536L26.9083 138.452L27.079 138.623C27.1625 138.7 27.2464 138.78 27.3299 138.863C27.8375 139.384 27.6138 139.694 27.2797 140.118L27.0388 140.429C26.8846 140.629 26.7557 140.839 26.7878 141.122C26.8328 141.431 26.989 141.704 27.2396 141.935C27.6957 142.359 28.2426 142.578 28.7052 142.257C28.8144 142.192 28.9128 142.096 28.9963 142.006L28.7153 141.745C28.5611 141.879 28.1716 142.231 27.9724 141.865C27.966 141.826 27.966 141.797 27.9724 141.765C28.0045 141.623 28.0788 141.492 28.1431 141.363L28.3338 140.972C28.5908 140.47 28.5185 140 28.133 139.486L28.143 139.476C28.7919 140.002 29.6011 140.341 30.1407 139.757C30.372 139.513 30.4535 139.089 30.3315 138.723C30.1773 138.299 29.9062 137.993 29.5786 137.679L29.167 137.277L26.9384 135.219L26.7075 135.46L26.8882 135.631C27.0103 135.759 27.1737 135.865 27.1994 136.032C27.2123 136.148 26.9689 136.37 26.8983 136.454L24.8806 138.632C24.6878 138.812 24.6148 138.886 24.3385 138.643C24.2607 138.579 24.1912 138.51 24.1176 138.442C23.8281 138.083 23.8457 137.957 23.9871 137.589L25.5933 133.533L25.2118 133.101ZM24.1176 133.864L23.435 135.49L22.401 134.336L24.1176 133.864ZM110.03 134.637L106.315 138.241L106.556 138.482C106.71 138.334 106.858 138.176 107.038 138.06C107.109 138.009 107.155 138.014 107.219 138.04C107.27 138.046 107.307 138.088 107.339 138.12L109.618 140.469C109.67 140.521 109.727 140.58 109.759 140.65C109.874 140.869 109.442 141.162 109.307 141.323L109.538 141.564L113.292 137.92L112.168 136.645L111.877 136.896C112.294 137.782 112.299 138.407 111.425 139.255C111.322 139.351 111.223 139.436 111.114 139.526C110.818 139.764 110.734 139.655 110.542 139.456L109.568 138.452C110.101 137.906 110.674 137.883 111.124 138.301L111.425 138.01L109.839 136.434L109.568 136.705C109.921 137.193 109.905 137.706 109.327 138.201L108.494 137.342C108.424 137.265 108.326 137.191 108.294 137.081C108.262 137.03 108.274 136.958 108.294 136.901C108.371 136.734 108.506 136.597 108.635 136.469C109.515 135.608 110.077 135.624 110.964 136.067L111.245 135.796L110.042 134.64L110.03 134.637ZM28.3991 137.073C28.5661 137.157 28.7059 137.296 28.8408 137.425C29.3548 137.9 29.5158 138.304 29.0917 138.76C28.6227 139.267 28.1613 139.12 27.596 138.619C27.4418 138.484 27.292 138.355 27.1442 138.208L28.0377 137.244C28.1212 137.148 28.2449 137.028 28.3991 137.073ZM106.308 138.248L102.353 141.44L103.347 142.866L103.648 142.625C103.366 142.117 103.111 141.227 103.779 140.687C103.856 140.629 103.996 140.546 104.06 140.617C104.124 140.681 104.183 140.757 104.241 140.828L106.228 143.297C106.273 143.355 106.339 143.425 106.359 143.508C106.391 143.553 106.364 143.654 106.319 143.699C106.158 143.853 105.997 144.003 105.817 144.151L106.028 144.422L108.447 142.464L108.236 142.203C108.082 142.319 107.935 142.455 107.774 142.564C107.524 142.725 107.49 142.674 107.343 142.494L105.307 139.981C105.256 139.91 105.188 139.831 105.137 139.76C105.085 139.676 105.196 139.557 105.267 139.499C105.942 138.953 106.738 139.372 107.194 139.77L107.496 139.529L106.311 138.254L106.308 138.248ZM31.2979 139.222L30.1435 140.537L30.4446 140.757C30.8687 140.366 31.681 139.906 32.3621 140.426C32.4392 140.484 32.544 140.61 32.4926 140.687C32.4412 140.764 32.3833 140.837 32.3319 140.908L30.4045 143.428C30.3595 143.492 30.3109 143.566 30.2339 143.598C30.1953 143.643 30.0845 143.651 30.0331 143.618C29.8468 143.496 29.6608 143.372 29.481 143.237L29.2701 143.508L31.7397 145.385L31.9404 145.114C31.7927 144.992 31.63 144.888 31.4887 144.753C31.2767 144.554 31.3072 144.507 31.4486 144.321L33.4262 141.741C33.4776 141.671 33.5326 141.595 33.5969 141.53C33.6611 141.46 33.7972 141.539 33.8679 141.591C34.5618 142.124 34.3449 142.988 34.0687 143.528L34.3699 143.759L35.2432 142.444L35.1227 142.655L35.2934 142.755C35.4026 142.832 35.6343 142.961 35.705 143.076C35.7757 143.205 35.6524 143.348 35.5946 143.438L34.1891 145.757C33.9064 146.181 33.6651 146.375 33.0548 146.028L32.8882 146.305L34.7555 147.441L34.9262 147.148C34.2516 146.763 34.4054 146.363 34.6752 145.913L36.171 143.454H36.181L35.5285 147.911L35.8698 148.112L39.5039 145.401L39.5139 145.412L37.6968 148.393C37.6583 148.457 37.6306 148.522 37.5663 148.554C37.5342 148.592 37.47 148.613 37.4057 148.594C37.3543 148.587 37.2893 148.55 37.225 148.544L36.8534 148.317L36.6727 148.609L39.1724 150.124L39.3531 149.833L39.1724 149.733C39.0243 149.635 38.7232 149.486 38.7807 149.291C38.7936 149.252 38.8245 149.219 38.8309 149.18L40.417 146.54C40.5006 146.405 40.576 146.272 40.6981 146.169C40.8652 146.117 41.0422 146.239 41.19 146.329L41.3807 146.45L41.4109 146.41C41.5779 146.486 41.7468 146.568 41.8927 146.671C41.9634 146.716 41.9831 146.761 41.9831 146.831C41.9959 146.876 41.9622 146.923 41.9429 146.962L40.5676 149.933C40.5355 149.998 40.505 150.083 40.4472 150.134C40.2801 150.32 39.8532 150.014 39.6541 149.943L39.5135 150.255L44.2619 152.463L45.0449 150.947L44.7035 150.777C44.0225 151.477 43.4431 151.706 42.3445 151.198C42.216 151.14 42.0951 151.068 41.973 150.998C41.6454 150.805 41.7168 150.686 41.8325 150.435L42.4348 149.17C43.1351 149.472 43.3588 149.994 43.1275 150.566L43.4989 150.747L44.4125 148.709L44.0611 148.538C43.7334 149.046 43.2436 149.226 42.5754 148.859L43.0773 147.755C43.1223 147.652 43.1681 147.555 43.258 147.484C43.2966 147.439 43.3644 147.42 43.4287 147.414C43.6086 147.427 43.7836 147.507 43.9507 147.584C45.0622 148.098 45.2517 148.623 45.1553 149.612L45.5067 149.773L46.1592 148.237L41.4711 146.059L41.451 146.099L39.4433 144.874L37.0039 146.681L37.4356 143.659L35.2973 142.364L35.3374 142.314L31.2979 139.222ZM102.243 141.561L100.416 142.755L100.597 143.036C101.149 142.689 101.438 142.764 101.721 143.207L102.735 144.753L98.6189 143.92L96.9926 144.974L97.1733 145.265C97.4496 145.079 97.7676 145.024 98.0568 145.114L99.6128 147.503C99.8955 147.979 99.8927 148.176 99.3016 148.588L99.4923 148.869L101.349 147.664L101.159 147.383C100.561 147.756 100.28 147.618 99.9842 147.162L98.6892 145.164L103.699 146.198L104.1 145.937L102.273 143.147C102.177 142.986 102.08 142.828 102.022 142.655C101.9 142.301 102.118 142.096 102.414 141.852L102.243 141.561ZM96.621 145.114L93.9808 146.52L94.1414 146.831L94.3522 146.71C94.4743 146.653 94.5988 146.566 94.7337 146.54C94.8429 146.514 94.8538 146.559 94.9245 146.61C94.9759 146.668 95.0128 146.727 95.0449 146.791L96.5106 149.541C96.6327 149.76 96.7259 149.881 96.4303 150.073L95.9986 150.304L96.1592 150.605L98.7994 149.2L98.6388 148.899L98.4782 148.989C98.3625 149.041 98.2561 149.101 98.1469 149.14C98.1084 149.153 98.0751 149.174 98.0365 149.18C97.8823 149.212 97.8168 149.079 97.7655 148.989L96.2597 146.168C96.2278 146.111 96.1757 146.038 96.1693 145.968C96.1632 145.929 96.1498 145.882 96.1693 145.837C96.2271 145.683 96.4195 145.603 96.5608 145.526L96.7817 145.415L96.621 145.114ZM90.7384 148.056L85.8897 149.883L86.0202 150.204C86.2194 150.127 86.427 150.042 86.6326 150.003C86.7161 149.99 86.7518 150.008 86.8032 150.054C86.8479 150.079 86.8606 150.135 86.8735 150.174L88.038 153.236C88.0637 153.313 88.0883 153.38 88.0883 153.457C88.1079 153.707 87.592 153.808 87.4057 153.898L87.5262 154.22L92.4251 152.373L91.9031 150.756L91.5316 150.857C91.5573 151.84 91.3136 152.424 90.1764 152.854C90.0479 152.9 89.9198 152.936 89.7849 152.975C89.4187 153.078 89.3793 152.947 89.2829 152.684L88.7911 151.369C89.5042 151.08 90.0362 151.295 90.2868 151.861L90.6683 151.71L89.8552 149.632L89.4837 149.772C89.6187 150.364 89.4031 150.829 88.6706 151.047L88.2492 149.922C88.2106 149.819 88.156 149.716 88.1688 149.601C88.1688 149.543 88.2007 149.491 88.2391 149.44C88.374 149.324 88.5575 149.243 88.731 149.179C89.881 148.748 90.3773 148.977 91.0198 149.741L91.3812 149.601L90.7387 148.065L90.7384 148.056ZM46.2266 148.307L46.1161 148.628C46.4245 148.737 46.6658 148.958 46.7686 149.24L45.825 151.921C45.6194 152.441 45.4684 152.561 44.781 152.342L44.6706 152.663L46.7586 153.396L46.8691 153.075C46.2138 152.839 46.1536 152.535 46.3335 152.026L47.1266 149.778L49.3552 154.376L49.8069 154.526L50.9212 151.384C50.979 151.211 51.0393 151.036 51.1421 150.882C51.3477 150.574 51.6464 150.628 52.0255 150.711L52.1359 150.39L50.088 149.667L49.9776 149.989C50.5943 150.207 50.7031 150.488 50.5297 150.982L49.9173 152.739L48.0702 148.955L46.2331 148.312L46.2266 148.307ZM85.6988 149.973L82.8779 150.696L82.9583 151.017C83.0739 150.985 83.5261 150.852 83.661 150.917C83.7124 150.936 83.7257 150.985 83.7514 151.017C83.7837 151.088 83.7961 151.174 83.8216 151.258L84.1328 152.483L82.1351 152.995L81.8139 151.73C81.7815 151.614 81.7488 151.498 81.7939 151.388C81.9159 151.273 82.3673 151.18 82.4765 151.148L82.3961 150.816L79.5351 151.559L79.6154 151.88C79.821 151.842 80.0322 151.756 80.2378 151.75C80.4305 151.744 80.4566 151.939 80.4887 152.061L81.2517 155.053C81.2712 155.162 81.2825 155.268 81.3021 155.384C81.3211 155.493 81.194 155.549 81.0912 155.575L80.5994 155.705L80.6897 156.036L83.5508 155.294L83.4604 154.962C83.3704 154.988 83.0404 155.067 82.9183 155.093C82.687 155.131 82.632 154.932 82.587 154.772L82.2357 153.396L84.2334 152.874L84.5646 154.149C84.597 154.297 84.7321 154.581 84.4944 154.671C84.353 154.729 84.0129 154.823 83.9423 154.842L84.0226 155.173L86.8736 154.44L86.7832 154.109C86.5841 154.167 86.3865 154.197 86.1809 154.229C86.0781 154.229 86.0123 154.219 85.9801 154.129C85.9416 154.013 85.9055 153.883 85.8798 153.768L85.155 150.905C85.1227 150.763 85.0197 150.549 85.2253 150.453L85.7975 150.282L85.7072 149.961L85.6988 149.973ZM52.2098 150.375L51.6777 152.031L52.0491 152.121C52.2804 151.595 52.8301 150.838 53.6654 151.037C53.7553 151.063 53.9091 151.128 53.8962 151.218C53.8834 151.308 53.8551 151.405 53.836 151.489L53.0931 154.571C53.0736 154.648 53.0608 154.737 53.0028 154.802C52.9833 154.853 52.8863 154.898 52.8221 154.892C52.6036 154.853 52.3844 154.823 52.1595 154.772L52.0691 155.103L55.0908 155.836L55.1812 155.504C54.9948 155.453 54.7888 155.418 54.6089 155.354C54.3327 155.257 54.3467 155.197 54.3981 154.972L55.1742 151.822C55.1937 151.738 55.2189 151.644 55.2445 151.561C55.2763 151.471 55.4356 151.481 55.5256 151.5C56.3736 151.706 56.5278 152.593 56.4893 153.197L56.8708 153.287L57.1619 151.571L52.2228 150.376L52.2098 150.375ZM79.2242 151.579L74.1948 152.322L74.3253 154.059L74.7068 153.999C74.7196 153.42 74.9465 152.514 75.801 152.392C75.8909 152.38 76.0527 152.386 76.072 152.483C76.0915 152.566 76.1095 152.664 76.1224 152.754L76.5841 155.886C76.597 155.963 76.6201 156.053 76.5944 156.137C76.5944 156.195 76.5181 156.268 76.4539 156.287C76.2419 156.339 76.0226 156.386 75.7913 156.418L75.8417 156.749L78.9136 156.308L78.8632 155.966C78.6769 155.992 78.4837 156.024 78.291 156.036C77.9954 156.049 77.9818 155.997 77.9496 155.765L77.4778 152.553C77.4649 152.463 77.4542 152.372 77.4475 152.282C77.4408 152.186 77.5984 152.141 77.6884 152.121C78.5493 151.999 79.0215 152.764 79.2143 153.336L79.5958 153.286L79.2242 151.579ZM62.8796 152.237C62.16 152.173 61.3742 152.346 60.8216 152.719C60.2049 153.13 59.8619 153.74 59.7977 154.396C59.7463 154.993 60.0005 155.654 60.4502 156.142C60.932 156.656 61.6332 156.965 62.3977 157.036C63.2072 157.106 63.8834 156.991 64.5259 156.574C65.117 156.195 65.5286 155.524 65.58 154.907C65.6378 154.265 65.4057 153.638 64.9174 153.131C64.3777 152.585 63.7019 152.314 62.8796 152.237ZM62.8996 152.579C64.1139 152.688 64.1348 154.032 64.0641 154.777C64.0446 155.015 64.0043 155.265 63.9336 155.49C63.7601 156.074 63.5272 156.818 62.6085 156.735C62.0495 156.683 61.6605 156.438 61.4741 155.982C61.3135 155.57 61.275 154.99 61.3135 154.566C61.3842 153.77 61.5954 152.456 62.8996 152.579ZM65.59 152.579V152.92H65.7908C65.9385 152.926 66.0976 152.905 66.2325 152.95C66.3931 152.989 66.3931 153.146 66.3931 153.261V156.434C66.3931 156.53 66.3923 156.638 66.3731 156.735C66.3535 156.754 66.3556 156.776 66.3427 156.795C66.3232 156.815 66.2918 156.833 66.2725 156.845C66.1954 156.871 66.1187 156.865 66.0416 156.865H65.5798V157.207H68.6918V156.865L68.2 156.845C67.7631 156.833 67.7683 156.754 67.7683 156.414V154.988H67.8386C68.3526 154.988 68.6276 155.112 68.8525 155.51C68.936 155.658 68.9701 155.828 68.983 155.982H69.3745V153.764H68.983C68.8223 154.393 68.5906 154.683 67.7683 154.657V153.332C67.7683 153.229 67.7492 153.088 67.8586 153.011C68.0449 152.901 68.2891 152.92 68.5011 152.92C69.6254 152.92 70.0748 153.405 70.3382 154.266H70.7197L70.6693 152.579L65.59 152.579Z" fill="#564535"/>
<path id="Vector_9" d="M29.4149 68.6164C29.1193 68.6164 28.8828 68.8529 28.8828 69.1485C28.8828 69.444 29.1193 69.6906 29.4149 69.6906C29.7104 69.6906 29.947 69.444 29.947 69.1485C29.947 68.8529 29.7104 68.6164 29.4149 68.6164ZM39.0217 75.1013L36.0703 76.316L36.492 77.2095L40.0457 77.2398L41.7422 76.5069L41.3106 75.6035L39.0217 75.1013ZM99.6973 87.514C99.6202 87.3598 99.4026 87.5402 99.3962 87.765C99.3448 88.9021 99.026 90.5027 98.4927 91.3187C98.4927 91.3187 99.0139 91.962 99.1553 91.8206C99.303 91.6729 100.076 88.2721 99.6973 87.514ZM94.2162 91.8507C93.7922 91.8507 93.4533 92.1896 93.4533 92.6137C93.4533 93.0441 93.7922 93.3866 94.2162 93.3866C94.6467 93.3866 94.9892 93.0441 94.9892 92.6137C94.9892 92.1896 94.6467 91.8507 94.2162 91.8507ZM102.9 97.5127C102.771 98.4443 101.654 102.043 98.2621 102.582C102.554 102.743 103.48 99.3458 103.352 98.6069C103.223 97.8681 102.9 97.5127 102.9 97.5127Z" fill="white"/>
</g>
</g>
</svg>
