<svg width="222" height="90" viewBox="0 0 222 90" fill="none" xmlns="http://www.w3.org/2000/svg">
<path id="Vector" d="M10.168 89.9986H0V0.000939673H89.3925C128.604 0.000939673 134.792 35.1811 134.792 35.1811L156.795 0.000939673H179.852L222 68.2368L208.796 89.9958H153.222V79.1402H215.382L168.299 0C168.299 0 137.268 53.9253 130.607 64.4304C123.945 74.9359 111.431 89.9934 89.9975 89.9934H56.8009V36.4158H67.3198V79.1374H91.5127C102.212 79.1374 125.173 70.0329 125.173 44.295C125.173 18.5572 100.629 10.5032 92.5645 10.5032H10.167V89.9911L10.168 89.9986ZM13.6742 89.9986V51.8295H52.9438V62.335H24.1926V89.9991L13.6742 89.9986ZM52.9438 47.277V36.4214H24.1926V24.9072H90.3515C100.269 24.9072 110.798 32.9194 110.798 44.6502C110.798 56.381 100.155 64.4351 92.5662 64.4351H82.2528V36.421H71.3835V74.9406H92.5662C105.982 74.9406 121.492 63.3108 121.492 45.0002C121.492 26.8649 107.387 14.3599 90.5185 14.3599H13.6765V47.2765H52.9461L52.9438 47.277ZM120.086 89.9986L168.298 10.5107L207.919 74.941H153.224V64.4355H188.637L168.301 31.3437L134.816 90H120.09L120.086 89.9986Z" fill="black"/>
</svg>
