<svg width="338" height="40" viewBox="0 0 338 40" fill="none" xmlns="http://www.w3.org/2000/svg">
<path d="M98.0238 11.2002V28.3886H102.305C104.482 28.3886 106.659 27.4498 108.111 25.7887C109.707 24.1277 110.433 21.961 110.433 19.7222C110.505 17.4834 109.634 15.3168 108.111 13.6557C106.514 11.9947 104.482 11.128 102.16 11.128L98.0238 11.2002ZM102.305 5.85594C110.288 5.85594 116.383 11.9947 116.383 19.7944C116.383 27.5942 110.288 33.7329 102.305 33.7329H92.7991C92.4363 33.7329 92.0734 33.3718 92.0734 33.0107V6.50592C92.0734 6.14482 92.4363 5.78372 92.7991 5.78372H102.305V5.85594ZM137.064 28.9664C140.693 28.9664 144.031 26.7276 145.41 23.3332C146.788 19.8667 145.99 15.9668 143.523 13.2946C140.983 10.6947 137.064 9.82805 133.654 11.2725C130.243 12.6446 128.066 16.039 128.066 19.7944C128.066 24.9221 132.057 28.9664 137.064 28.9664ZM137.064 5.27818C145.482 5.27818 151.94 11.8502 151.94 19.8667C151.94 27.8109 145.482 34.4551 137.064 34.4551C128.647 34.4551 122.261 27.8831 122.261 19.8667C122.261 11.8502 128.719 5.27818 137.064 5.27818ZM172.477 28.9664C177.411 28.9664 181.475 24.7776 181.475 19.7944C181.475 14.6668 177.484 10.6225 172.477 10.6225C167.47 10.6225 163.478 14.6668 163.478 19.7944C163.478 22.2499 164.422 24.561 166.091 26.2943C167.76 28.0276 170.082 28.9664 172.477 28.9664ZM172.477 5.27818C180.894 5.27818 187.353 11.8502 187.353 19.8667C187.353 27.8109 180.894 34.4551 172.477 34.4551C164.132 34.4551 157.601 27.8831 157.601 19.8667C157.601 11.8502 164.059 5.27818 172.477 5.27818ZM206.946 11.2002H200.85V18.5667H206.946C207.889 18.5667 208.832 18.2056 209.558 17.6278C210.284 16.9056 210.719 15.9668 210.719 15.0279C210.719 14.0168 210.356 13.0057 209.703 12.3558C208.977 11.5613 208.034 11.2002 206.946 11.2002ZM195.045 6.57815C195.045 6.21704 195.408 5.85594 195.77 5.85594H207.163C212.678 5.85594 216.597 9.90027 216.597 15.0279C216.597 18.4945 214.783 21.6722 211.735 23.1888L216.887 32.7219C217.032 33.0107 217.032 33.2274 216.887 33.5163C216.815 33.8052 216.524 33.8774 216.307 33.8774H211.662C211.372 33.8774 211.154 33.7329 211.082 33.5163L206.002 24.0554H200.923V33.083C200.923 33.4441 200.632 33.8052 200.197 33.8052H195.843C195.48 33.8052 195.117 33.4441 195.117 33.083L195.045 6.57815ZM231.908 11.4169V28.6053H236.19C238.367 28.6053 240.544 27.6664 241.995 26.0776C243.591 24.4165 244.462 22.2499 244.317 20.0111C244.39 17.7723 243.519 15.6057 241.995 13.9446C240.399 12.2835 238.367 11.4169 236.045 11.4169H231.908ZM236.117 6.00038C244.099 6.00038 250.195 12.1391 250.195 19.9389C250.195 27.7387 244.099 33.8774 236.117 33.8774H226.611C226.248 33.8774 225.885 33.5163 225.885 33.1552V6.72258C225.885 6.36148 226.248 6.00038 226.611 6.00038H236.117ZM268.119 12.7891L264.781 21.9611H271.384L268.119 12.7891ZM262.894 27.1609L260.717 33.2996C260.645 33.5885 260.354 33.8052 259.991 33.8052H255.275C254.984 33.8052 254.767 33.7329 254.694 33.5163C254.549 33.3718 254.549 33.083 254.622 32.7941L264.781 6.28926C264.853 6.00038 265.144 5.85594 265.506 5.85594H270.804C271.167 5.85594 271.384 6.00038 271.529 6.28926L281.689 32.7941C281.761 33.083 281.761 33.2996 281.616 33.5163C281.471 33.6607 281.253 33.8774 281.036 33.8052H276.319C275.956 33.8052 275.738 33.6607 275.593 33.2996L273.416 27.1609H262.894ZM287.059 13.3668C287.059 8.96141 290.832 5.20595 296.637 5.20595C299.758 5.13373 302.805 6.36148 305.2 8.52809C305.49 8.81697 305.49 9.25029 305.2 9.46695L302.588 12.1391C302.297 12.428 301.862 12.428 301.644 12.1391C300.411 10.9836 298.742 10.3336 297.145 10.3336C294.823 10.3336 293.082 11.7058 293.082 13.3668C293.082 18.5667 306.942 15.5335 306.942 25.5721C306.942 30.6275 303.168 34.5274 296.565 34.5274C292.791 34.5274 289.236 33.1552 286.623 30.483C286.333 30.1941 286.333 29.7608 286.623 29.5442L289.163 26.9442C289.453 26.6554 289.889 26.6554 290.106 26.9442C291.703 28.5331 293.88 29.3997 296.129 29.472C299.105 29.472 300.991 27.8831 300.991 25.8609C300.991 20.4444 287.059 23.4777 287.059 13.3668ZM332.05 6.57815V17.0501H320.294V6.57815C320.294 6.21704 320.004 5.85594 319.568 5.85594H315.214C314.851 5.85594 314.489 6.21704 314.489 6.57815V33.083C314.489 33.4441 314.851 33.8052 315.214 33.8052H319.641C320.004 33.8052 320.366 33.4441 320.366 33.083V22.3944H332.122V33.083C332.122 33.4441 332.485 33.8052 332.848 33.8052H337.274C337.637 33.8052 338 33.4441 338 33.083V6.57815C338 6.21704 337.71 5.85594 337.274 5.85594H332.848C332.34 5.85594 332.05 6.21704 332.05 6.57815ZM67.1107 9.39473C64.0629 3.68933 57.9674 0.150544 51.4364 0.222764H1.72862C1.00296 0.222764 0.422431 0.656081 0.132166 1.23384C-0.158098 1.8116 0.0596001 2.60603 0.494997 3.03935L11.3073 13.7279C12.2507 14.6668 13.5569 15.1723 14.9357 15.1723H50.0577C52.5975 15.1723 54.5568 17.0501 54.5568 19.5778C54.5568 22.0333 52.5249 23.9832 50.1302 24.0554H25.9657C25.24 24.0554 24.6595 24.4888 24.3692 25.0665C24.079 25.6443 24.2967 26.4387 24.7321 26.872L35.5444 37.7773C36.4878 38.7161 37.794 39.2217 39.1727 39.2217H50.1302C64.3532 39.1495 75.0204 24.1999 67.1107 9.39473Z" fill="#313131"/>
</svg>
