<svg width="145" height="162" viewBox="0 0 145 162" fill="none" xmlns="http://www.w3.org/2000/svg">
<g id="Group 36942">
<g id="Group 36941">
<g id="Group">
<path id="Vector" d="M26.3847 0.607239H25.6952H10.2847L0 37.2289H12.5785C12.5785 37.2289 14.0263 30.8515 14.2968 29.6967C15.4145 29.6967 20.7723 29.6967 21.8727 29.6967C22.1472 30.8329 23.7011 37.2289 23.7011 37.2289H36.8258L26.3847 0.607239ZM20.4965 22.057H15.6412L18.1524 12.3411L20.4965 22.057Z" fill="#0A2972"/>
<path id="Vector_2" d="M54.9181 0.607239H37.1211V37.2289H49.6226V28.5312H54.9181C61.9041 28.5312 67.5324 23.1389 67.5324 14.1111C67.5324 4.15657 60.2826 0.607239 54.9181 0.607239ZM49.6226 10.0023H51.2349C54.9036 10.0023 56.4561 11.4249 56.4561 14.3206C56.4561 17.5557 54.828 19.0937 51.2747 19.0937H49.624V10.0023H49.6226Z" fill="#0A2972"/>
<path id="Vector_3" d="M98.2961 0.607239H86.7028V13.2294H81.3754V0.607239H68.8633V37.2289H81.3754V22.8579H86.7028C86.7028 22.8579 86.7028 24.8427 86.7028 37.2289H99.2083V0.607239H98.2961Z" fill="#0A2972"/>
<path id="Vector_4" d="M114.011 0.607239H102.422V37.2289H114.93V0.607239H114.011Z" fill="#0A2972"/>
<path id="Vector_5" d="M129.638 11.5827C129.638 10.6003 131.578 9.51173 134.637 9.89358C139.244 10.4637 142.494 12.422 142.494 12.422V1.40939L141.807 1.22244C138.727 0.444164 135.382 0 132.367 0C119.792 0 117.133 6.63064 117.133 12.182C117.133 25.5785 131.782 21.6619 131.782 26.1394C131.782 27.985 128.432 28.1056 126.626 27.9664C123.303 27.6707 117.421 24.7525 117.421 24.7525V35.9415C117.421 35.9415 123.634 37.9117 129.661 37.9117C134.008 37.9117 144.281 36.6124 144.281 25.2351C144.282 11.4886 129.638 15.9793 129.638 11.5827Z" fill="#0A2972"/>
</g>
<g id="Group_2">
<path id="Vector_6" d="M143.777 61.9216L143.766 51.7881C96.3429 62.8604 46.4348 79.1419 6.58203 102.966C6.66556 103.181 6.7597 103.396 6.84323 103.613C21.8957 97.053 70.2009 77.4833 143.777 61.9216Z" fill="#023825"/>
<path id="Vector_7" d="M0.154297 62.1722C24.1338 57.5357 103.509 58.542 103.509 58.542C66.9578 47.7429 11.8524 49.5872 0.154297 50.1268V62.1722Z" fill="#023825"/>
<path id="Vector_8" d="M73.4059 66.7756C47.537 66.0729 6.37829 70.5013 0.205078 71.1881C0.32308 75.1683 0.687692 79.1115 1.28566 82.9989C11.8713 78.6434 73.4059 66.7756 73.4059 66.7756Z" fill="#023825"/>
<path id="Vector_9" d="M71.9679 161.882C113.611 150.734 141.584 114.086 143.643 73.2379C100.713 82.2113 54.2265 94.9024 10.9941 112.787C23.0727 136.153 44.557 154.546 71.9679 161.882Z" fill="#023825"/>
</g>
</g>
</g>
</svg>
