<svg width="17" height="17" viewBox="0 0 17 17" fill="none" xmlns="http://www.w3.org/2000/svg">
<g id="Group 37092">
<path id="Combined-Shape" fill-rule="evenodd" clip-rule="evenodd" d="M7.2404 0.00247934C7.41314 0.00220899 7.59898 0.00229238 7.79952 0.00238237L8.13005 0.00247934C10.778 0.00247934 11.0918 0.0119833 12.1374 0.0595033C13.1044 0.103718 13.6292 0.265286 13.9787 0.401028C14.4415 0.580777 14.7715 0.79565 15.1184 1.14275C15.4655 1.48986 15.6804 1.82043 15.8605 2.28323C15.9963 2.6324 16.158 3.15719 16.2021 4.12412C16.2496 5.16956 16.2599 5.4836 16.2599 8.13026C16.2599 10.7769 16.2496 11.091 16.2021 12.1364C16.1578 13.1033 15.9963 13.6281 15.8605 13.9773C15.6808 14.4401 15.4655 14.7696 15.1184 15.1165C14.7713 15.4636 14.4417 15.6785 13.9787 15.8583C13.6296 15.9946 13.1044 16.1558 12.1374 16.2C11.092 16.2475 10.778 16.2578 8.13005 16.2578C5.48195 16.2578 5.16811 16.2475 4.12267 16.2C3.15574 16.1554 2.63096 15.9938 2.28117 15.8581C1.81836 15.6783 1.48779 15.4634 1.14069 15.1163C0.793584 14.7692 0.578711 14.4395 0.398548 13.9765C0.262806 13.6273 0.101032 13.1025 0.057024 12.1356C0.00950401 11.0901 0 10.7761 0 8.12778C0 5.47947 0.00950401 5.16708 0.057024 4.12164C0.101238 3.15471 0.262806 2.62992 0.398548 2.28034C0.578298 1.81754 0.793584 1.48696 1.14069 1.13986C1.48779 0.792758 1.81836 0.577885 2.28117 0.397722C2.63075 0.26136 3.15574 0.100205 4.12267 0.0557844C5.03754 0.0144626 5.39208 0.00206611 7.2404 0V0.00247934ZM13.4238 1.64905C12.7668 1.64905 12.2338 2.18148 12.2338 2.8387C12.2338 3.49572 12.7668 4.02877 13.4238 4.02877C14.0809 4.02877 14.6139 3.49572 14.6139 2.8387C14.6139 2.18169 14.0809 1.64864 13.4238 1.64864V1.64905ZM3.03721 8.13258C3.03721 5.32008 5.31744 3.03978 8.12991 3.03967C10.9425 3.03967 13.2222 5.32001 13.2222 8.13258C13.2222 10.9451 10.9427 13.2245 8.13012 13.2245C5.31755 13.2245 3.03721 10.9451 3.03721 8.13258Z" fill="#EFB74C"/>
<path id="Shape" d="M8.12996 4.82666C9.95555 4.82666 11.4357 6.3066 11.4357 8.1324C11.4357 9.95799 9.95555 11.4381 8.12996 11.4381C6.30416 11.4381 4.82422 9.95799 4.82422 8.1324C4.82422 6.3066 6.30416 4.82666 8.12996 4.82666Z" fill="#EFB74C"/>
<path id="Combined-Shape_2" fill-rule="evenodd" clip-rule="evenodd" d="M7.2404 0.00247934C7.41314 0.00220899 7.59898 0.00229238 7.79952 0.00238237L8.13005 0.00247934C10.778 0.00247934 11.0918 0.0119833 12.1374 0.0595033C13.1044 0.103718 13.6292 0.265286 13.9787 0.401028C14.4415 0.580777 14.7715 0.79565 15.1184 1.14275C15.4655 1.48986 15.6804 1.82043 15.8605 2.28323C15.9963 2.6324 16.158 3.15719 16.2021 4.12412C16.2496 5.16956 16.2599 5.4836 16.2599 8.13026C16.2599 10.7769 16.2496 11.091 16.2021 12.1364C16.1578 13.1033 15.9963 13.6281 15.8605 13.9773C15.6808 14.4401 15.4655 14.7696 15.1184 15.1165C14.7713 15.4636 14.4417 15.6785 13.9787 15.8583C13.6296 15.9946 13.1044 16.1558 12.1374 16.2C11.092 16.2475 10.778 16.2578 8.13005 16.2578C5.48195 16.2578 5.16811 16.2475 4.12267 16.2C3.15574 16.1554 2.63096 15.9938 2.28117 15.8581C1.81836 15.6783 1.48779 15.4634 1.14069 15.1163C0.793584 14.7692 0.578711 14.4395 0.398548 13.9765C0.262806 13.6273 0.101032 13.1025 0.057024 12.1356C0.00950401 11.0901 0 10.7761 0 8.12778C0 5.47947 0.00950401 5.16708 0.057024 4.12164C0.101238 3.15471 0.262806 2.62992 0.398548 2.28034C0.578298 1.81754 0.793584 1.48696 1.14069 1.13986C1.48779 0.792758 1.81836 0.577885 2.28117 0.397722C2.63075 0.26136 3.15574 0.100205 4.12267 0.0557844C5.03754 0.0144626 5.39208 0.00206611 7.2404 0V0.00247934ZM13.4238 1.64905C12.7668 1.64905 12.2338 2.18148 12.2338 2.8387C12.2338 3.49572 12.7668 4.02877 13.4238 4.02877C14.0809 4.02877 14.6139 3.49572 14.6139 2.8387C14.6139 2.18169 14.0809 1.64864 13.4238 1.64864V1.64905ZM3.03721 8.13258C3.03721 5.32008 5.31744 3.03978 8.12991 3.03967C10.9425 3.03967 13.2222 5.32001 13.2222 8.13258C13.2222 10.9451 10.9427 13.2245 8.13012 13.2245C5.31755 13.2245 3.03721 10.9451 3.03721 8.13258Z" fill="#EFB74C"/>
</g>
</svg>
