<svg width="236" height="39" viewBox="0 0 236 39" fill="none" xmlns="http://www.w3.org/2000/svg">
<g id="Group">
<path id="Vector" d="M108.789 14.9284C105.286 14.9284 102.801 17.6694 102.801 21.877V37.3113H97.4538V10.1444H102.737V13.4618C103.389 12.3623 104.323 11.4571 105.442 10.84C106.562 10.2229 107.826 9.91639 109.103 9.95224H111.024V14.9284H108.789ZM93.7585 23.7278C93.7585 15.6264 87.9947 9.56798 80.1943 9.56798C78.3513 9.5805 76.5289 9.9573 74.832 10.6767C73.1351 11.3962 71.5973 12.444 70.3069 13.76C69.0165 15.076 67.999 16.6341 67.3131 18.3448C66.6271 20.0555 66.2861 21.8849 66.3098 23.7278C66.3098 31.8228 72.554 37.9453 80.7002 37.9453C82.9758 37.9883 85.2283 37.4836 87.2679 36.4738C89.3076 35.464 91.0746 33.9787 92.42 32.143L88.5391 29.2995C87.6487 30.5422 86.4705 31.5508 85.1054 32.2389C83.7403 32.9271 82.2288 33.2743 80.7002 33.251C78.5231 33.2407 76.4218 32.4509 74.7769 31.0246C73.1321 29.5982 72.0527 27.6299 71.7342 25.4762H93.7713L93.7585 23.7278ZM71.8495 21.2366C72.8038 17.093 76.1148 14.2879 80.1302 14.2879C84.1457 14.2879 87.4503 17.093 88.3469 21.2366H71.8495ZM49.3705 9.56798C47.5834 9.56948 45.8143 9.92512 44.1655 10.6143C42.5166 11.3036 41.0207 12.3127 39.7641 13.5835V0H34.4166V37.3113H39.7001V33.8658C42.2597 36.4551 45.7425 37.9224 49.3833 37.9453C51.272 37.9854 53.1496 37.6481 54.9062 36.9531C56.6628 36.2581 58.2629 35.2193 59.6128 33.8978C60.9627 32.5763 62.0352 30.9986 62.7673 29.2572C63.4995 27.5158 63.8767 25.6457 63.8767 23.7566C63.8767 21.8676 63.4995 19.9975 62.7673 18.2561C62.0352 16.5147 60.9627 14.937 59.6128 13.6155C58.2629 12.2939 56.6628 11.2552 54.9062 10.5602C53.1496 9.86519 51.272 9.52786 49.3833 9.56798H49.3705ZM48.9863 33.1677C47.1223 33.1766 45.2978 32.6316 43.7441 31.6018C42.1904 30.5721 40.9776 29.104 40.2596 27.3838C39.5416 25.6637 39.3507 23.769 39.7113 21.9403C40.0718 20.1115 40.9675 18.4311 42.2846 17.1121C43.6017 15.7932 45.2809 14.8953 47.1092 14.5322C48.9375 14.1692 50.8324 14.3575 52.5535 15.0731C54.2746 15.7887 55.7444 16.9995 56.7762 18.5518C57.8081 20.1041 58.3556 21.9279 58.3493 23.7919C58.351 25.0213 58.1099 26.239 57.6398 27.375C57.1697 28.511 56.4799 29.543 55.6099 30.4118C54.74 31.2805 53.7071 31.9689 52.5704 32.4375C51.4337 32.906 50.2157 33.1455 48.9863 33.1421V33.1677ZM14.7234 32.9116C19.8853 32.9116 23.8943 28.9537 23.8943 23.0234V0H29.434V37.3113H23.9584V33.7825C22.6791 35.1047 21.1449 36.1536 19.4486 36.8658C17.7523 37.578 15.9291 37.9387 14.0894 37.9261C6.12889 37.9261 0 32.1238 0 23.3244V0H5.64216V23.0554C5.64216 29.0178 9.48473 32.9116 14.7234 32.9116Z" fill="#313131"/>
<path id="Vector_2" d="M124.326 0H150.5V6.40427H131.396V15.4983H149.969V21.6849H131.396V30.9326H150.5V37.3369H124.326V0ZM222.785 38.0093C230.81 38.0093 235.331 34.1668 235.331 28.8897C235.331 25.1304 232.654 22.3253 227.051 21.1085L221.127 19.8981C217.688 19.2576 216.605 18.6172 216.605 17.3364C216.605 15.6777 218.264 14.6594 221.319 14.6594C224.63 14.6594 227.083 15.5496 227.723 18.6108H234.665C234.288 12.847 230.144 9.04283 221.742 9.04283C214.479 9.04283 209.381 12.04 209.381 17.8487C209.381 21.8642 212.186 24.4771 218.238 25.7516L224.86 27.2822C227.473 27.7945 228.171 28.499 228.171 29.5813C228.171 31.3041 226.199 32.3864 223.01 32.3864C219.001 32.3864 216.708 31.4962 215.818 28.435H208.837C209.855 34.186 214.12 38.0093 222.785 38.0093ZM206.82 37.3113H199.307C194.594 37.3113 191.981 34.3781 191.981 30.6765V16.0107H186.697V9.76011H192.007V1.91488H198.987V9.76011H206.82V16.0107H198.987V28.8897C198.987 30.3562 200.005 31.0607 201.6 31.0607H206.82V37.3113ZM176.72 9.77292V12.2578C174.262 10.1801 171.145 9.04504 167.926 9.05564C166 9.01511 164.084 9.35961 162.292 10.0689C160.5 10.7783 158.868 11.8381 157.491 13.1865C156.114 14.5348 155.02 16.1444 154.273 17.921C153.527 19.6975 153.142 21.6053 153.142 23.5325C153.142 25.4597 153.527 27.3675 154.273 29.144C155.02 30.9206 156.114 32.5302 157.491 33.8785C158.868 35.2269 160.5 36.2867 162.292 36.9961C164.084 37.7054 166 38.0499 167.926 38.0093C171.145 38.0233 174.263 36.8878 176.72 34.8072V37.2985H183.681V9.76011L176.72 9.77292ZM168.503 31.9637C166.833 31.9828 165.195 31.5049 163.797 30.5909C162.4 29.6769 161.305 28.368 160.653 26.8306C160.002 25.2931 159.821 23.5965 160.136 21.9564C160.45 20.3164 161.245 18.8068 162.42 17.6196C163.594 16.4325 165.095 15.6213 166.732 15.2892C168.369 14.9571 170.067 15.1191 171.611 15.7546C173.156 16.3901 174.476 17.4704 175.405 18.8581C176.334 20.2459 176.83 21.8785 176.828 23.5485C176.839 24.6494 176.63 25.7413 176.216 26.7611C175.801 27.781 175.188 28.7084 174.413 29.4899C173.637 30.2713 172.714 30.8912 171.698 31.3136C170.681 31.736 169.591 31.9527 168.49 31.9509L168.503 31.9637Z" fill="#939393"/>
</g>
</svg>
