<svg width="187" height="40" viewBox="0 0 187 40" fill="none" xmlns="http://www.w3.org/2000/svg">
<path id="Vector" fill-rule="evenodd" clip-rule="evenodd" d="M130.185 0.785014H123.65C123.258 0.785014 123.084 1.17502 123.084 1.34835V15.5183H116.548V1.34835C116.548 0.958349 116.156 0.785014 115.982 0.785014H109.446C109.054 0.785014 108.88 1.17502 108.88 1.34835V37.705C108.88 38.095 109.272 38.2683 109.446 38.2683H115.982C116.374 38.2683 116.548 37.8783 116.548 37.705V23.145H123.084V37.705C123.084 38.095 123.476 38.2683 123.65 38.2683H130.185C130.578 38.2683 130.752 37.8783 130.752 37.705V1.34835C130.752 1.13168 130.578 0.785014 130.185 0.785014ZM75.0266 0.785014H68.4911C68.099 0.785014 67.9247 0.958349 67.9247 1.34835V27.0883C67.9247 28.3883 67.5326 29.3417 67.0098 30.0783C66.4434 30.815 65.7027 30.9883 64.7442 30.9883C63.8292 30.9883 63.045 30.5983 62.4786 30.0783C61.9122 29.3417 61.5636 28.3883 61.5636 27.0883V1.30501C61.5636 0.915013 61.1715 0.741678 60.9972 0.741678H54.4618C54.0697 0.741678 53.8954 0.915013 53.8954 1.30501V27.2617C53.8954 30.5983 54.6361 33.7617 56.6838 35.8417C58.7316 37.8783 61.5636 39.005 64.7442 39.005C68.099 39.005 70.931 37.8783 72.8045 35.8417C74.8523 33.805 75.593 30.815 75.593 27.2617V1.30501C75.593 1.13168 75.4187 0.785014 75.0266 0.785014ZM10.8488 0.22168C7.49394 0.22168 4.66193 1.34835 2.78844 3.38501C0.740681 5.42168 0 8.41168 0 11.965V27.4783C0 30.815 0.740681 33.9783 2.78844 36.0583C4.83621 38.095 7.66822 39.2217 10.8488 39.2217C14.2036 39.2217 17.0356 38.095 18.9091 36.0583C20.9569 34.0217 21.6976 31.0317 21.6976 27.4783V18.9417C21.6976 18.5517 21.3055 18.205 20.9569 18.205H11.3716C10.9795 18.205 10.6309 18.595 10.6309 18.9417V25.3117C10.6309 25.7017 11.0231 26.0483 11.3716 26.0483H13.8551V27.5217C13.8551 28.8217 13.463 29.9917 12.9401 30.685C12.3737 31.4217 11.633 31.595 10.6745 31.595C9.75955 31.595 8.9753 31.205 8.4089 30.685C7.8425 29.9483 7.49394 28.8217 7.49394 27.5217V12.225C7.49394 10.925 7.88607 9.75501 8.4089 9.06168C8.9753 8.32501 9.71598 8.15168 10.6745 8.15168C11.5895 8.15168 12.3737 8.54168 12.9401 9.06168C13.5065 9.79834 13.8551 10.925 13.8551 12.225V13.6983C13.8551 14.0883 14.2472 14.2617 14.4215 14.2617H20.9569C21.349 14.2617 21.5233 14.0883 21.5233 13.6983V12.225C21.5233 8.88834 20.7826 5.72501 18.7349 3.64501C17.0792 1.34834 14.0294 0.22168 10.8488 0.22168ZM95.2864 29.905C94.7199 30.6417 93.9793 30.815 92.8029 30.815H89.0559V22.9283H92.8029C93.7178 22.9283 94.5021 23.3183 95.0685 23.8383C95.6349 24.575 95.9835 25.5283 95.9835 26.6117C96.0706 28.215 95.8528 29.125 95.2864 29.905ZM89.0559 8.45501H92.4108C93.3257 8.45501 94.11 8.62835 94.6764 9.36502C95.2428 9.92835 95.4171 10.8383 95.4171 12.0083C95.4171 13.1783 95.2428 14.045 94.6764 14.7817C94.11 15.345 93.3693 15.6917 92.6286 15.6917H89.2738V8.45501H89.0559ZM99.9483 19.0717C101.081 17.945 103.129 15.345 103.129 11.965C103.129 8.02168 101.647 5.59501 100.471 4.29501C98.4233 2.04168 95.5913 0.958345 92.4108 0.958345H82.172C81.7798 0.958345 81.6055 1.34835 81.6055 1.52168V37.9217C81.6055 38.3117 81.9977 38.485 82.172 38.485H93.0643C96.4192 38.485 99.5997 37.185 101.691 34.5417C102.824 33.0683 104.175 30.5983 104.175 26.8717C103.913 22.4083 101.125 19.765 99.9483 19.0717ZM40.3017 15.5183C39.7353 16.255 38.8204 16.645 37.644 16.645H34.4634V8.45501H37.644C38.7768 8.45501 39.6917 8.84502 40.3017 9.58168C41.0424 10.3183 41.2167 11.2717 41.2167 12.5717C41.2167 13.8717 41.086 14.7817 40.3017 15.5183ZM44.4844 22.235C45.2251 21.6717 45.7915 21.325 46.3579 20.545C47.665 19.0717 49.3642 16.4283 49.3642 12.3117C49.3642 8.36834 47.8828 5.81168 46.3579 4.29501C44.4844 2.04168 41.6959 0.958345 38.4718 0.741678H27.5794C27.1873 0.741678 27.013 1.13168 27.013 1.30501V37.6617C27.013 38.0517 27.4052 38.225 27.5794 38.225H34.1149C34.507 38.225 34.6813 37.835 34.6813 37.6617V24.2283H36.9469L41.086 38.0083C41.086 38.1817 41.4781 38.3983 41.6524 38.3983H48.5799L49.1463 38.225C49.3206 38.225 49.3206 37.835 49.3206 37.6617L44.4844 22.235ZM177.981 29.905C177.415 30.6417 176.674 30.815 175.498 30.815H171.751V22.9283H175.498C176.413 22.9283 177.197 23.3183 177.763 23.8383C178.33 24.575 178.678 25.5283 178.678 26.6117C178.94 28.215 178.591 29.125 177.981 29.905ZM171.969 8.45501H175.323C176.238 8.45501 177.023 8.62835 177.589 9.36502C178.155 9.92835 178.33 10.8383 178.33 12.0083C178.33 13.1783 178.155 14.045 177.589 14.7817C177.023 15.345 176.282 15.6917 175.541 15.6917H172.186V8.45501H171.969ZM182.861 19.0717C183.994 17.945 186.041 15.345 186.041 11.965C186.041 8.02168 184.56 5.59501 183.384 4.29501C181.336 2.04168 178.504 0.958345 175.323 0.958345H164.954C164.562 0.958345 164.387 1.34835 164.387 1.52168V37.9217C164.387 38.3117 164.78 38.485 164.954 38.485H175.89C179.245 38.485 182.425 37.185 184.517 34.5417C185.649 33.0683 187 30.5983 187 26.8717C186.651 22.4083 183.819 19.765 182.861 19.0717ZM157.721 0.785014H151.186C150.794 0.785014 150.62 0.958349 150.62 1.34835V27.0883C150.62 28.3883 150.227 29.3417 149.705 30.0783C149.138 30.815 148.397 30.9883 147.439 30.9883C146.524 30.9883 145.74 30.5983 145.173 30.0783C144.607 29.3417 144.258 28.3883 144.258 27.0883V1.30501C144.258 0.915013 143.866 0.741678 143.692 0.741678H137.113C136.721 0.741678 136.547 0.915013 136.547 1.30501V27.2617C136.547 30.5983 137.287 33.7617 139.335 35.8417C141.383 37.8783 144.215 39.005 147.395 39.005C150.75 39.005 153.582 37.8783 155.456 35.8417C157.503 33.805 158.244 30.815 158.244 27.2617V1.30501C158.506 1.13168 158.157 0.785014 157.721 0.785014Z" fill="#313131"/>
</svg>
